<svg width="320" height="39" viewBox="0 0 320 39" fill="none" xmlns="http://www.w3.org/2000/svg">
<g clip-path="url(#clip0)">
<g filter="url(#filter0_b)">
<path fill-rule="evenodd" clip-rule="evenodd" d="M294.092 39.9912C295.367 39.9912 297 39.7839 297 38.5171C297 37.0206 295.598 36 294.092 36C292.212 36 290 36.65 290 38.5171C290 40.2058 292.392 39.9912 294.092 39.9912Z" fill="url(#paint0_linear)"/>
</g>
<g filter="url(#filter1_b)">
<path fill-rule="evenodd" clip-rule="evenodd" d="M107.733 34C110.154 34 112 36.2433 112 38.8598C112 41.2803 109.972 43 107.733 43C104.708 43 101 42.1302 101 38.8598C101 35.4418 104.572 34 107.733 34Z" fill="url(#paint1_linear)"/>
</g>
<g filter="url(#filter2_b)">
<path fill-rule="evenodd" clip-rule="evenodd" d="M283.733 34C286.154 34 288 36.2433 288 38.8598C288 41.2803 285.972 43 283.733 43C280.708 43 277 42.1302 277 38.8598C277 35.4418 280.572 34 283.733 34Z" fill="url(#paint2_linear)"/>
</g>
<g filter="url(#filter3_b)">
<path fill-rule="evenodd" clip-rule="evenodd" d="M302.733 34C305.154 34 307 36.2433 307 38.8598C307 41.2803 304.972 43 302.733 43C299.708 43 296 42.1302 296 38.8598C296 35.4418 299.572 34 302.733 34Z" fill="url(#paint3_linear)"/>
</g>
<g filter="url(#filter4_b)">
<path fill-rule="evenodd" clip-rule="evenodd" d="M37.0011 42.1636C38.8708 42.049 40.3517 40.4964 40.3517 38.5979C40.3517 37.6023 39.9444 36.7018 39.2874 36.054C36.2905 33.067 35.5636 32.7949 31.3487 33.0939C29.4799 33.2094 28 34.7616 28 36.6595C28 37.6478 28.4013 38.5424 29.0499 39.1892L29.0499 39.1892C32.0584 42.1891 32.781 42.4629 37.0011 42.1636Z" fill="url(#paint4_linear)"/>
</g>
<path d="M79.8194 36.9976L80.6081 32.9992L81.3968 29L82.1061 31.7987C83.4508 37.1072 83.5016 37.1313 85.4555 33.3962L87.3403 29.7947L87.3759 33.7459L87.4117 37.6971L89.9168 35.3465C91.8921 33.493 92.2948 33.3345 91.8182 34.5966C91.4862 35.477 90.6832 37.7275 90.0327 39.5986L88.8509 43H81.5255H74.1993L72.8085 38.7983C72.0429 36.487 71.2415 34.0564 71.0262 33.3962C70.8118 32.7359 71.9372 33.6363 73.5273 35.397L76.4192 38.5982L76.0753 34.3966C75.8863 32.0852 75.8497 30.1949 75.9951 30.1949C76.1412 30.1949 77.061 31.7251 78.0395 33.5962L79.8194 36.9976Z" fill="url(#paint5_linear)"/>
<g filter="url(#filter5_b)">
<path fill-rule="evenodd" clip-rule="evenodd" d="M66.7487 30.0296C68.6028 29.7384 70.067 31.6418 70.6625 33.5942C71.2786 35.614 71.1291 37.9966 69.56 39.2466C67.9958 40.4926 65.7105 40.13 64.3494 38.6232C63.3373 37.5029 64.8039 35.9576 65.2254 34.4481C65.6901 32.7834 65.1808 30.2759 66.7487 30.0296Z" fill="url(#paint6_linear)"/>
</g>
<g filter="url(#filter6_b)">
<path fill-rule="evenodd" clip-rule="evenodd" d="M247.639 33.1355C246.174 31.9625 243.958 32.8883 242.472 34.2878C240.935 35.7356 239.882 37.8783 240.624 39.7422C241.364 41.6002 243.528 42.4195 245.457 41.7869C246.892 41.3165 246.385 39.2471 246.769 37.7275C247.191 36.0516 248.878 34.1274 247.639 33.1355Z" fill="url(#paint7_linear)"/>
</g>
<path d="M94.8194 38.9976L95.6081 34.9992L96.3968 31L97.1061 33.7987C98.4508 39.1072 98.5016 39.1313 100.455 35.3962L102.34 31.7947L102.376 35.7459L102.412 39.6971L104.917 37.3465C106.892 35.493 107.295 35.3345 106.818 36.5966C106.486 37.477 105.683 39.7275 105.033 41.5986L103.851 45H96.5255H89.1993L87.8085 40.7983C87.0429 38.487 86.2415 36.0564 86.0262 35.3962C85.8118 34.7359 86.9372 35.6363 88.5273 37.397L91.4192 40.5982L91.0753 36.3966C90.8863 34.0852 90.8497 32.1949 90.9951 32.1949C91.1412 32.1949 92.061 33.7251 93.0395 35.5962L94.8194 38.9976Z" fill="url(#paint8_linear)"/>
<path d="M111.819 35.9976L112.608 31.9992L113.397 28L114.106 30.7987C115.451 36.1072 115.502 36.1313 117.455 32.3962L119.34 28.7947L119.376 32.7459L119.412 36.6971L121.917 34.3465C123.892 32.493 124.295 32.3345 123.818 33.5966C123.486 34.477 122.683 36.7275 122.033 38.5986L120.851 42H113.525H106.199L104.809 37.7983C104.043 35.487 103.241 33.0564 103.026 32.3962C102.812 31.7359 103.937 32.6363 105.527 34.397L108.419 37.5982L108.075 33.3966C107.886 31.0852 107.85 29.1949 107.995 29.1949C108.141 29.1949 109.061 30.7251 110.04 32.5962L111.819 35.9976Z" fill="url(#paint9_linear)"/>
<path d="M126.819 37.9976L127.608 33.9992L128.397 30L129.106 32.7987C130.451 38.1072 130.502 38.1313 132.455 34.3962L134.34 30.7947L134.376 34.7459L134.412 38.6971L136.917 36.3465C138.892 34.493 139.295 34.3345 138.818 35.5966C138.486 36.477 137.683 38.7275 137.033 40.5986L135.851 44H128.525H121.199L119.809 39.7983C119.043 37.487 118.241 35.0564 118.026 34.3962C117.812 33.7359 118.937 34.6363 120.527 36.397L123.419 39.5982L123.075 35.3966C122.886 33.0852 122.85 31.1949 122.995 31.1949C123.141 31.1949 124.061 32.7251 125.04 34.5962L126.819 37.9976Z" fill="url(#paint10_linear)"/>
<path d="M140.819 36.9976L141.608 32.9992L142.397 29L143.106 31.7987C144.451 37.1072 144.502 37.1313 146.455 33.3962L148.34 29.7947L148.376 33.7459L148.412 37.6971L150.917 35.3465C152.892 33.493 153.295 33.3345 152.818 34.5966C152.486 35.477 151.683 37.7275 151.033 39.5986L149.851 43H142.525H135.199L133.809 38.7983C133.043 36.487 132.241 34.0564 132.026 33.3962C131.812 32.7359 132.937 33.6363 134.527 35.397L137.419 38.5982L137.075 34.3966C136.886 32.0852 136.85 30.1949 136.995 30.1949C137.141 30.1949 138.061 31.7251 139.04 33.5962L140.819 36.9976Z" fill="url(#paint11_linear)"/>
<path d="M40.8194 36.9976L41.6081 32.9992L42.3968 29L43.1061 31.7987C44.4508 37.1072 44.5016 37.1313 46.4555 33.3962L48.3403 29.7947L48.3759 33.7459L48.4117 37.6971L50.9168 35.3465C52.8921 33.493 53.2948 33.3345 52.8182 34.5966C52.4862 35.477 51.6832 37.7275 51.0327 39.5986L49.8509 43H42.5255H35.1993L33.8085 38.7983C33.0429 36.487 32.2415 34.0564 32.0262 33.3962C31.8118 32.7359 32.9372 33.6363 34.5273 35.397L37.4192 38.5982L37.0753 34.3966C36.8863 32.0852 36.8497 30.1949 36.9951 30.1949C37.1412 30.1949 38.061 31.7251 39.0395 33.5962L40.8194 36.9976Z" fill="url(#paint12_linear)"/>
<path d="M8.81945 36.9976L9.60811 32.9992L10.3968 29L11.1061 31.7987C12.4508 37.1072 12.5016 37.1313 14.4555 33.3962L16.3403 29.7947L16.3759 33.7459L16.4117 37.6971L18.9168 35.3465C20.8921 33.493 21.2948 33.3345 20.8182 34.5966C20.4862 35.477 19.6832 37.7275 19.0327 39.5986L17.8509 43H10.5255H3.19927L1.80854 38.7983C1.04288 36.487 0.241452 34.0564 0.0262084 33.3962C-0.188241 32.7359 0.937228 33.6363 2.52733 35.397L5.41923 38.5982L5.07529 34.3966C4.88626 32.0852 4.84973 30.1949 4.99508 30.1949C5.14122 30.1949 6.06098 31.7251 7.0395 33.5962L8.81945 36.9976Z" fill="url(#paint13_linear)"/>
<path d="M158.819 38.9976L159.608 34.9992L160.397 31L161.106 33.7987C162.451 39.1072 162.502 39.1313 164.455 35.3962L166.34 31.7947L166.376 35.7459L166.412 39.6971L168.917 37.3465C170.892 35.493 171.295 35.3345 170.818 36.5966C170.486 37.477 169.683 39.7275 169.033 41.5986L167.851 45H160.525H153.199L151.809 40.7983C151.043 38.487 150.241 36.0564 150.026 35.3962C149.812 34.7359 150.937 35.6363 152.527 37.397L155.419 40.5982L155.075 36.3966C154.886 34.0852 154.85 32.1949 154.995 32.1949C155.141 32.1949 156.061 33.7251 157.04 35.5962L158.819 38.9976Z" fill="url(#paint14_linear)"/>
<path d="M58.8194 38.9976L59.6081 34.9992L60.3968 31L61.1061 33.7987C62.4508 39.1072 62.5016 39.1313 64.4555 35.3962L66.3403 31.7947L66.3759 35.7459L66.4117 39.6971L68.9168 37.3465C70.8921 35.493 71.2948 35.3345 70.8182 36.5966C70.4862 37.477 69.6832 39.7275 69.0327 41.5986L67.8509 45H60.5255H53.1993L51.8085 40.7983C51.0429 38.487 50.2415 36.0564 50.0262 35.3962C49.8118 34.7359 50.9372 35.6363 52.5273 37.397L55.4192 40.5982L55.0753 36.3966C54.8863 34.0852 54.8497 32.1949 54.9951 32.1949C55.1412 32.1949 56.061 33.7251 57.0395 35.5962L58.8194 38.9976Z" fill="url(#paint15_linear)"/>
<path d="M26.8194 38.9976L27.6081 34.9992L28.3968 31L29.1061 33.7987C30.4508 39.1072 30.5016 39.1313 32.4555 35.3962L34.3403 31.7947L34.3759 35.7459L34.4117 39.6971L36.9168 37.3465C38.8921 35.493 39.2948 35.3345 38.8182 36.5966C38.4862 37.477 37.6832 39.7275 37.0327 41.5986L35.8509 45H28.5255H21.1993L19.8085 40.7983C19.0429 38.487 18.2415 36.0564 18.0262 35.3962C17.8118 34.7359 18.9372 35.6363 20.5273 37.397L23.4192 40.5982L23.0753 36.3966C22.8863 34.0852 22.8497 32.1949 22.9951 32.1949C23.1412 32.1949 24.061 33.7251 25.0395 35.5962L26.8194 38.9976Z" fill="url(#paint16_linear)"/>
<path fill-rule="evenodd" clip-rule="evenodd" d="M220.16 19.6464C218.405 20.5209 218.668 24.1739 220.769 28.0863C222.215 30.7801 222.615 32.5279 222.863 37.2209C223.151 42.6816 223.046 43.2881 221.075 47.4968C217.799 54.4915 218.42 57.3553 223.128 56.9651C224.702 56.8348 225.635 56.3344 226.353 55.2351C227.272 53.8286 227.246 53.4902 226.058 51.4882C224.917 49.564 224.74 47.9136 224.65 38.3351C224.556 28.4034 224.669 27.2078 225.862 25.5107C228.694 21.4824 224.707 17.3821 220.16 19.6464ZM225.425 22.9149C225.268 21.8848 225.119 20.8466 225.093 20.6091C225.021 19.9266 223.156 20.1059 222.621 20.8466C222.349 21.2219 222.758 21.9471 223.551 22.4958C224.609 23.2285 224.772 23.6407 224.198 24.1318C223.623 24.623 223.717 24.7884 224.57 24.7884C225.466 24.7884 225.649 24.3866 225.425 22.9149ZM225.273 54.4339C225.846 55.7107 224.063 56.6982 223.057 55.6611C222.605 55.1954 222.431 54.544 222.67 54.2131C223.298 53.3432 224.842 53.4741 225.273 54.4339ZM225.006 52.927C225.512 53.0711 225.764 52.8549 225.596 52.4226C225.433 52.0064 224.902 51.5522 224.416 51.4138C223.91 51.2697 223.658 51.4859 223.826 51.9182C223.988 52.3338 224.519 52.7881 225.006 52.927Z" fill="url(#paint17_linear)"/>
<path d="M212.376 31.2782C214.351 35.1033 214.874 34.8688 215.674 29.8041C216.284 25.9354 217.065 26.7323 217.943 32.121L218.518 35.6578L220.73 31.3289L222.942 27L222.979 31.3138L223.016 35.6277L225.752 32.9408C228.769 29.9783 229.042 30.3625 227.356 35.2015L226.224 38.4539L229.115 36.6321C230.706 35.6292 232.475 34.5282 233.049 34.1844C233.621 33.8407 233.244 34.9353 232.211 36.617C231.178 38.2979 230.08 40.1086 229.77 40.6401C229.364 41.3364 230.117 41.2817 232.465 40.4421C237.369 38.6892 237.799 39.0591 234.353 42.0683L231.225 44.7987L235.526 44.8478L239.826 44.8961L235.917 46.9912L232.007 49.0864L236.308 50.0337C239.982 50.8433 237.168 51.0047 216.793 50.9999C196.517 50.9951 193.499 50.8282 196.822 50.0147L200.732 49.0579L196.822 46.977L192.913 44.8961L197.177 44.8597L201.44 44.8225L198.368 41.635L195.295 38.4476L199.804 40.0191L204.312 41.5899L202.828 39.444C202.012 38.263 200.908 36.4522 200.374 35.4193C199.3 33.3416 199.558 33.4113 203.709 36.3255C204.917 37.1731 206.064 37.7046 206.258 37.5073C206.453 37.3101 206.082 35.6221 205.432 33.7567C203.772 28.9906 203.927 28.9264 207.409 32.9408L210.502 36.5053L210.538 32.1487L210.576 27.7921L212.376 31.2782Z" fill="#003554"/>
<path d="M212.376 31.2782C214.351 35.1033 214.874 34.8688 215.674 29.8041C216.284 25.9354 217.065 26.7323 217.943 32.121L218.518 35.6578L220.73 31.3289L222.942 27L222.979 31.3138L223.016 35.6277L225.752 32.9408C228.769 29.9783 229.042 30.3625 227.356 35.2015L226.224 38.4539L229.115 36.6321C230.706 35.6292 232.475 34.5282 233.049 34.1844C233.621 33.8407 233.244 34.9353 232.211 36.617C231.178 38.2979 230.08 40.1086 229.77 40.6401C229.364 41.3364 230.117 41.2817 232.465 40.4421C237.369 38.6892 237.799 39.0591 234.353 42.0683L231.225 44.7987L235.526 44.8478L239.826 44.8961L235.917 46.9912L232.007 49.0864L236.308 50.0337C239.982 50.8433 237.168 51.0047 216.793 50.9999C196.517 50.9951 193.499 50.8282 196.822 50.0147L200.732 49.0579L196.822 46.977L192.913 44.8961L197.177 44.8597L201.44 44.8225L198.368 41.635L195.295 38.4476L199.804 40.0191L204.312 41.5899L202.828 39.444C202.012 38.263 200.908 36.4522 200.374 35.4193C199.3 33.3416 199.558 33.4113 203.709 36.3255C204.917 37.1731 206.064 37.7046 206.258 37.5073C206.453 37.3101 206.082 35.6221 205.432 33.7567C203.772 28.9906 203.927 28.9264 207.409 32.9408L210.502 36.5053L210.538 32.1487L210.576 27.7921L212.376 31.2782Z" fill="url(#paint18_linear)"/>
<path d="M271.819 37.9976L272.608 33.9992L273.397 30L274.106 32.7987C275.451 38.1072 275.502 38.1313 277.455 34.3962L279.34 30.7947L279.376 34.7459L279.412 38.6971L281.917 36.3465C283.892 34.493 284.295 34.3345 283.818 35.5966C283.486 36.477 282.683 38.7275 282.033 40.5986L280.851 44H273.525H266.199L264.809 39.7983C264.043 37.487 263.241 35.0564 263.026 34.3962C262.812 33.7359 263.937 34.6363 265.527 36.397L268.419 39.5982L268.075 35.3966C267.886 33.0852 267.85 31.1949 267.995 31.1949C268.141 31.1949 269.061 32.7251 270.04 34.5962L271.819 37.9976Z" fill="#003554"/>
<path d="M271.819 37.9976L272.608 33.9992L273.397 30L274.106 32.7987C275.451 38.1072 275.502 38.1313 277.455 34.3962L279.34 30.7947L279.376 34.7459L279.412 38.6971L281.917 36.3465C283.892 34.493 284.295 34.3345 283.818 35.5966C283.486 36.477 282.683 38.7275 282.033 40.5986L280.851 44H273.525H266.199L264.809 39.7983C264.043 37.487 263.241 35.0564 263.026 34.3962C262.812 33.7359 263.937 34.6363 265.527 36.397L268.419 39.5982L268.075 35.3966C267.886 33.0852 267.85 31.1949 267.995 31.1949C268.141 31.1949 269.061 32.7251 270.04 34.5962L271.819 37.9976Z" fill="url(#paint19_linear)"/>
<path d="M290.819 39.9976L291.608 35.9992L292.397 32L293.106 34.7987C294.451 40.1072 294.502 40.1313 296.455 36.3962L298.34 32.7947L298.376 36.7459L298.412 40.6971L300.917 38.3465C302.892 36.493 303.295 36.3345 302.818 37.5966C302.486 38.477 301.683 40.7275 301.033 42.5986L299.851 46H292.525H285.199L283.809 41.7983C283.043 39.487 282.241 37.0564 282.026 36.3962C281.812 35.7359 282.937 36.6363 284.527 38.397L287.419 41.5982L287.075 37.3966C286.886 35.0852 286.85 33.1949 286.995 33.1949C287.141 33.1949 288.061 34.7251 289.04 36.5962L290.819 39.9976Z" fill="#003554"/>
<path d="M290.819 39.9976L291.608 35.9992L292.397 32L293.106 34.7987C294.451 40.1072 294.502 40.1313 296.455 36.3962L298.34 32.7947L298.376 36.7459L298.412 40.6971L300.917 38.3465C302.892 36.493 303.295 36.3345 302.818 37.5966C302.486 38.477 301.683 40.7275 301.033 42.5986L299.851 46H292.525H285.199L283.809 41.7983C283.043 39.487 282.241 37.0564 282.026 36.3962C281.812 35.7359 282.937 36.6363 284.527 38.397L287.419 41.5982L287.075 37.3966C286.886 35.0852 286.85 33.1949 286.995 33.1949C287.141 33.1949 288.061 34.7251 289.04 36.5962L290.819 39.9976Z" fill="url(#paint20_linear)"/>
<path d="M252.819 37.9976L253.608 33.9992L254.397 30L255.106 32.7987C256.451 38.1072 256.502 38.1313 258.455 34.3962L260.34 30.7947L260.376 34.7459L260.412 38.6971L262.917 36.3465C264.892 34.493 265.295 34.3345 264.818 35.5966C264.486 36.477 263.683 38.7275 263.033 40.5986L261.851 44H254.525H247.199L245.809 39.7983C245.043 37.487 244.241 35.0564 244.026 34.3962C243.812 33.7359 244.937 34.6363 246.527 36.397L249.419 39.5982L249.075 35.3966C248.886 33.0852 248.85 31.1949 248.995 31.1949C249.141 31.1949 250.061 32.7251 251.04 34.5962L252.819 37.9976Z" fill="#003554"/>
<path d="M252.819 37.9976L253.608 33.9992L254.397 30L255.106 32.7987C256.451 38.1072 256.502 38.1313 258.455 34.3962L260.34 30.7947L260.376 34.7459L260.412 38.6971L262.917 36.3465C264.892 34.493 265.295 34.3345 264.818 35.5966C264.486 36.477 263.683 38.7275 263.033 40.5986L261.851 44H254.525H247.199L245.809 39.7983C245.043 37.487 244.241 35.0564 244.026 34.3962C243.812 33.7359 244.937 34.6363 246.527 36.397L249.419 39.5982L249.075 35.3966C248.886 33.0852 248.85 31.1949 248.995 31.1949C249.141 31.1949 250.061 32.7251 251.04 34.5962L252.819 37.9976Z" fill="url(#paint21_linear)"/>
<path d="M233.819 38.9976L234.608 34.9992L235.397 31L236.106 33.7987C237.451 39.1072 237.502 39.1313 239.455 35.3962L241.34 31.7947L241.376 35.7459L241.412 39.6971L243.917 37.3465C245.892 35.493 246.295 35.3345 245.818 36.5966C245.486 37.477 244.683 39.7275 244.033 41.5986L242.851 45H235.525H228.199L226.809 40.7983C226.043 38.487 225.241 36.0564 225.026 35.3962C224.812 34.7359 225.937 35.6363 227.527 37.397L230.419 40.5982L230.075 36.3966C229.886 34.0852 229.85 32.1949 229.995 32.1949C230.141 32.1949 231.061 33.7251 232.04 35.5962L233.819 38.9976Z" fill="#003554"/>
<path d="M233.819 38.9976L234.608 34.9992L235.397 31L236.106 33.7987C237.451 39.1072 237.502 39.1313 239.455 35.3962L241.34 31.7947L241.376 35.7459L241.412 39.6971L243.917 37.3465C245.892 35.493 246.295 35.3345 245.818 36.5966C245.486 37.477 244.683 39.7275 244.033 41.5986L242.851 45H235.525H228.199L226.809 40.7983C226.043 38.487 225.241 36.0564 225.026 35.3962C224.812 34.7359 225.937 35.6363 227.527 37.397L230.419 40.5982L230.075 36.3966C229.886 34.0852 229.85 32.1949 229.995 32.1949C230.141 32.1949 231.061 33.7251 232.04 35.5962L233.819 38.9976Z" fill="url(#paint22_linear)"/>
<path d="M208.819 39.9976L209.608 35.9992L210.397 32L211.106 34.7987C212.451 40.1072 212.502 40.1313 214.455 36.3962L216.34 32.7947L216.376 36.7459L216.412 40.6971L218.917 38.3465C220.892 36.493 221.295 36.3345 220.818 37.5966C220.486 38.477 219.683 40.7275 219.033 42.5986L217.851 46H210.525H203.199L201.809 41.7983C201.043 39.487 200.241 37.0564 200.026 36.3962C199.812 35.7359 200.937 36.6363 202.527 38.397L205.419 41.5982L205.075 37.3966C204.886 35.0852 204.85 33.1949 204.995 33.1949C205.141 33.1949 206.061 34.7251 207.04 36.5962L208.819 39.9976Z" fill="#003554"/>
<path d="M208.819 39.9976L209.608 35.9992L210.397 32L211.106 34.7987C212.451 40.1072 212.502 40.1313 214.455 36.3962L216.34 32.7947L216.376 36.7459L216.412 40.6971L218.917 38.3465C220.892 36.493 221.295 36.3345 220.818 37.5966C220.486 38.477 219.683 40.7275 219.033 42.5986L217.851 46H210.525H203.199L201.809 41.7983C201.043 39.487 200.241 37.0564 200.026 36.3962C199.812 35.7359 200.937 36.6363 202.527 38.397L205.419 41.5982L205.075 37.3966C204.886 35.0852 204.85 33.1949 204.995 33.1949C205.141 33.1949 206.061 34.7251 207.04 36.5962L208.819 39.9976Z" fill="url(#paint23_linear)"/>
<path d="M189.819 39.9976L190.608 35.9992L191.397 32L192.106 34.7987C193.451 40.1072 193.502 40.1313 195.455 36.3962L197.34 32.7947L197.376 36.7459L197.412 40.6971L199.917 38.3465C201.892 36.493 202.295 36.3345 201.818 37.5966C201.486 38.477 200.683 40.7275 200.033 42.5986L198.851 46H191.525H184.199L182.809 41.7983C182.043 39.487 181.241 37.0564 181.026 36.3962C180.812 35.7359 181.937 36.6363 183.527 38.397L186.419 41.5982L186.075 37.3966C185.886 35.0852 185.85 33.1949 185.995 33.1949C186.141 33.1949 187.061 34.7251 188.04 36.5962L189.819 39.9976Z" fill="#003554"/>
<path d="M189.819 39.9976L190.608 35.9992L191.397 32L192.106 34.7987C193.451 40.1072 193.502 40.1313 195.455 36.3962L197.34 32.7947L197.376 36.7459L197.412 40.6971L199.917 38.3465C201.892 36.493 202.295 36.3345 201.818 37.5966C201.486 38.477 200.683 40.7275 200.033 42.5986L198.851 46H191.525H184.199L182.809 41.7983C182.043 39.487 181.241 37.0564 181.026 36.3962C180.812 35.7359 181.937 36.6363 183.527 38.397L186.419 41.5982L186.075 37.3966C185.886 35.0852 185.85 33.1949 185.995 33.1949C186.141 33.1949 187.061 34.7251 188.04 36.5962L189.819 39.9976Z" fill="url(#paint24_linear)"/>
<path d="M306.819 36.9976L307.608 32.9992L308.397 29L309.106 31.7987C310.451 37.1072 310.502 37.1313 312.455 33.3962L314.34 29.7947L314.376 33.7459L314.412 37.6971L316.917 35.3465C318.892 33.493 319.295 33.3345 318.818 34.5966C318.486 35.477 317.683 37.7275 317.033 39.5986L315.851 43H308.525H301.199L299.809 38.7983C299.043 36.487 298.241 34.0564 298.026 33.3962C297.812 32.7359 298.937 33.6363 300.527 35.397L303.419 38.5982L303.075 34.3966C302.886 32.0852 302.85 30.1949 302.995 30.1949C303.141 30.1949 304.061 31.7251 305.04 33.5962L306.819 36.9976Z" fill="#003554"/>
<path d="M306.819 36.9976L307.608 32.9992L308.397 29L309.106 31.7987C310.451 37.1072 310.502 37.1313 312.455 33.3962L314.34 29.7947L314.376 33.7459L314.412 37.6971L316.917 35.3465C318.892 33.493 319.295 33.3345 318.818 34.5966C318.486 35.477 317.683 37.7275 317.033 39.5986L315.851 43H308.525H301.199L299.809 38.7983C299.043 36.487 298.241 34.0564 298.026 33.3962C297.812 32.7359 298.937 33.6363 300.527 35.397L303.419 38.5982L303.075 34.3966C302.886 32.0852 302.85 30.1949 302.995 30.1949C303.141 30.1949 304.061 31.7251 305.04 33.5962L306.819 36.9976Z" fill="url(#paint25_linear)"/>
<path d="M328.819 38.9976L329.608 34.9992L330.397 31L331.106 33.7987C332.451 39.1072 332.502 39.1313 334.455 35.3962L336.34 31.7947L336.376 35.7459L336.412 39.6971L338.917 37.3465C340.892 35.493 341.295 35.3345 340.818 36.5966C340.486 37.477 339.683 39.7275 339.033 41.5986L337.851 45H330.525H323.199L321.809 40.7983C321.043 38.487 320.241 36.0564 320.026 35.3962C319.812 34.7359 320.937 35.6363 322.527 37.397L325.419 40.5982L325.075 36.3966C324.886 34.0852 324.85 32.1949 324.995 32.1949C325.141 32.1949 326.061 33.7251 327.04 35.5962L328.819 38.9976Z" fill="#003554"/>
<path d="M328.819 38.9976L329.608 34.9992L330.397 31L331.106 33.7987C332.451 39.1072 332.502 39.1313 334.455 35.3962L336.34 31.7947L336.376 35.7459L336.412 39.6971L338.917 37.3465C340.892 35.493 341.295 35.3345 340.818 36.5966C340.486 37.477 339.683 39.7275 339.033 41.5986L337.851 45H330.525H323.199L321.809 40.7983C321.043 38.487 320.241 36.0564 320.026 35.3962C319.812 34.7359 320.937 35.6363 322.527 37.397L325.419 40.5982L325.075 36.3966C324.886 34.0852 324.85 32.1949 324.995 32.1949C325.141 32.1949 326.061 33.7251 327.04 35.5962L328.819 38.9976Z" fill="url(#paint26_linear)"/>
<path d="M167.463 33.2782C169.438 37.1033 169.961 36.8688 170.761 31.8041C171.371 27.9354 172.152 28.7323 173.03 34.121L173.605 37.6578L175.817 33.3289L178.029 29L178.066 33.3138L178.102 37.6277L180.839 34.9408C183.856 31.9783 184.128 32.3625 182.443 37.2015L181.311 40.4539L184.202 38.6321C185.793 37.6292 187.562 36.5282 188.136 36.1844C188.708 35.8407 188.331 36.9353 187.298 38.617C186.265 40.2979 185.167 42.1086 184.857 42.6401C184.451 43.3364 185.203 43.2817 187.551 42.4421C192.455 40.6892 192.885 41.0591 189.44 44.0683L186.312 46.7987L190.613 46.8478L194.913 46.8961L191.003 48.9912L187.094 51.0864L191.394 52.0337C195.068 52.8433 192.255 53.0047 171.88 52.9999C151.604 52.9951 148.586 52.8282 151.909 52.0147L155.819 51.0579L151.909 48.977L148 46.8961L152.264 46.8597L156.527 46.8225L153.455 43.635L150.382 40.4476L154.891 42.0191L159.399 43.5899L157.915 41.444C157.099 40.263 155.995 38.4522 155.461 37.4193C154.386 35.3416 154.644 35.4113 158.796 38.3255C160.003 39.1731 161.15 39.7046 161.345 39.5073C161.54 39.3101 161.168 37.6221 160.519 35.7567C158.859 30.9906 159.014 30.9264 162.496 34.9408L165.588 38.5053L165.625 34.1487L165.663 29.7921L167.463 33.2782Z" fill="#003554"/>
<path d="M167.463 33.2782C169.438 37.1033 169.961 36.8688 170.761 31.8041C171.371 27.9354 172.152 28.7323 173.03 34.121L173.605 37.6578L175.817 33.3289L178.029 29L178.066 33.3138L178.102 37.6277L180.839 34.9408C183.856 31.9783 184.128 32.3625 182.443 37.2015L181.311 40.4539L184.202 38.6321C185.793 37.6292 187.562 36.5282 188.136 36.1844C188.708 35.8407 188.331 36.9353 187.298 38.617C186.265 40.2979 185.167 42.1086 184.857 42.6401C184.451 43.3364 185.203 43.2817 187.551 42.4421C192.455 40.6892 192.885 41.0591 189.44 44.0683L186.312 46.7987L190.613 46.8478L194.913 46.8961L191.003 48.9912L187.094 51.0864L191.394 52.0337C195.068 52.8433 192.255 53.0047 171.88 52.9999C151.604 52.9951 148.586 52.8282 151.909 52.0147L155.819 51.0579L151.909 48.977L148 46.8961L152.264 46.8597L156.527 46.8225L153.455 43.635L150.382 40.4476L154.891 42.0191L159.399 43.5899L157.915 41.444C157.099 40.263 155.995 38.4522 155.461 37.4193C154.386 35.3416 154.644 35.4113 158.796 38.3255C160.003 39.1731 161.15 39.7046 161.345 39.5073C161.54 39.3101 161.168 37.6221 160.519 35.7567C158.859 30.9906 159.014 30.9264 162.496 34.9408L165.588 38.5053L165.625 34.1487L165.663 29.7921L167.463 33.2782Z" fill="url(#paint27_linear)"/>
<path d="M129.7 22.7009C127.538 24.8889 127.463 25.995 129.334 28.0505C130.118 28.9111 131.537 31.1314 132.487 32.9864C133.655 35.2643 135.409 36.6054 137.892 37.1193C145.461 38.6851 145 34.2837 145 105H150V43.0058C148.993 37.9166 145.591 34.717 141.185 34.717C139.137 34.717 136.472 33.9865 135.263 33.0924C133.174 31.5473 133.164 31.3618 135.046 29.2579C137.642 26.3556 137.556 23.5639 134.821 22.0833C131.971 20.5405 131.819 20.559 129.7 22.7009Z" fill="url(#paint28_linear)"/>
<path d="M172.355 0.591208C170.482 1.61883 169.376 3.4218 169.363 5.46996C169.339 9.36468 173.025 11.8057 176.344 10.0932C178.862 8.7942 179.349 6.6654 177.542 4.86243C176.157 3.4801 175.101 3.48391 173.707 4.87496C172.83 5.75057 172.721 6.19899 173.18 7.05444C173.792 8.19539 176.45 8.58116 176.45 7.52848C176.45 7.19665 176.121 7.05171 175.718 7.20537C174.604 7.632 173.515 6.72425 173.91 5.69826C174.146 5.08583 174.75 4.84554 175.764 4.96214C178.863 5.31794 177.453 9.76625 174.242 9.76625C170.146 9.76625 168.735 4.96324 171.981 2.06889C175.101 -0.713204 179.635 0.562333 181.489 4.74365C183.281 8.78658 181.973 12.2792 175.732 20.1187C173.943 22.3663 171.468 26.2894 170.233 28.8366C167.826 33.7988 167.902 33.1956 168.075 46H168.743V42.8305C167.482 36.0033 170.074 28.543 176.443 20.6636C180.78 15.2983 183.003 10.8821 183 7.63581C182.998 4.63904 181.538 1.99261 179.231 0.802619C177.341 -0.17324 173.937 -0.277857 172.355 0.591208Z" fill="url(#paint29_linear)"/>
<g filter="url(#filter7_b)">
<path fill-rule="evenodd" clip-rule="evenodd" d="M21.9428 36C24.2732 36 27 36.8269 27 39.1284C27 41.2027 24.0431 40.9355 21.9428 40.9355C19.5145 40.9355 16 41.5267 16 39.1284C16 36.531 19.3129 36 21.9428 36Z" fill="url(#paint30_linear)"/>
</g>
<g filter="url(#filter8_b)">
<path fill-rule="evenodd" clip-rule="evenodd" d="M194.943 36C197.273 36 200 36.8269 200 39.1284C200 41.2027 197.043 40.9355 194.943 40.9355C192.514 40.9355 189 41.5267 189 39.1284C189 36.531 192.313 36 194.943 36Z" fill="url(#paint31_linear)"/>
</g>
<g filter="url(#filter9_b)">
<path fill-rule="evenodd" clip-rule="evenodd" d="M156.675 39.8433C156.288 40.3325 155.554 40.3046 154.939 40.4049C154.378 40.4965 153.834 40.5093 153.277 40.398C152.595 40.2616 151.767 40.2612 151.369 39.6912C150.971 39.1197 151.127 38.3075 151.359 37.6481C151.556 37.0855 152.195 36.8492 152.539 36.3615C152.936 35.7977 152.847 34.7765 153.511 34.5929C154.17 34.4108 154.631 35.2797 155.222 35.6195C155.704 35.8961 156.343 35.9335 156.649 36.3963C156.959 36.8634 156.815 37.4684 156.819 38.0296C156.824 38.6511 157.061 39.3552 156.675 39.8433Z" fill="url(#paint32_linear)"/>
</g>
<g filter="url(#filter10_b)">
<path fill-rule="evenodd" clip-rule="evenodd" d="M53.5185 40.1552C52.4709 39.8745 50.9694 39.6009 51.2511 38.5496C51.6266 37.148 53.0546 36.3003 54.4511 36.6745C55.7577 37.0246 56.2963 38.4961 55.945 39.8073C55.6965 40.7348 54.4427 40.4028 53.5185 40.1552Z" fill="url(#paint33_linear)"/>
</g>
<g filter="url(#filter11_b)">
<path fill-rule="evenodd" clip-rule="evenodd" d="M2.98869 36C5.94215 36 9 37.3782 9 39.8668C9 42.4198 6.01869 44 2.98869 44C0.745466 44 0 41.7569 0 39.8668C0 38.0647 0.84998 36 2.98869 36Z" fill="url(#paint34_linear)"/>
</g>
<g filter="url(#filter12_b)">
<path fill-rule="evenodd" clip-rule="evenodd" d="M70.9085 39.9912C69.6334 39.9912 68 39.7839 68 38.5171C68 37.0206 69.4021 36 70.9085 36C72.7878 36 75 36.65 75 38.5171C75 40.2058 72.6081 39.9912 70.9085 39.9912Z" fill="url(#paint35_linear)"/>
</g>
<g filter="url(#filter13_b)">
<path fill-rule="evenodd" clip-rule="evenodd" d="M252.092 39.9912C253.367 39.9912 255 39.7839 255 38.5171C255 37.0206 253.598 36 252.092 36C250.212 36 248 36.65 248 38.5171C248 40.2058 250.392 39.9912 252.092 39.9912Z" fill="url(#paint36_linear)"/>
</g>
<g filter="url(#filter14_b)">
<path fill-rule="evenodd" clip-rule="evenodd" d="M143.209 35.8006C143.789 35.9708 144.475 36.034 144.822 36.5306C145.168 37.0248 144.885 37.6943 144.954 38.2948C145.035 39.0016 145.728 39.8176 145.261 40.3537C144.776 40.9095 143.821 40.2164 143.111 40.4084C142.478 40.5796 142.109 41.4008 141.454 41.383C140.764 41.3641 140.018 40.9492 139.739 40.3164C139.463 39.6913 140.017 39.0257 140.113 38.3479C140.19 37.813 140.005 37.2566 140.245 36.7723C140.509 36.2376 140.929 35.7407 141.494 35.5555C142.057 35.3709 142.641 35.6342 143.209 35.8006Z" fill="url(#paint37_linear)"/>
</g>
<g filter="url(#filter15_b)">
<path fill-rule="evenodd" clip-rule="evenodd" d="M94.1277 39.2001C94.0014 41.4539 90.9154 41.3629 88.6186 41.2342C86.2365 41.1007 83.0021 40.9216 83.1331 38.584C83.3047 35.5209 85.9408 33.1431 89.0622 33.318C92.119 33.4893 94.2958 36.2005 94.1277 39.2001Z" fill="url(#paint38_linear)"/>
</g>
<g filter="url(#filter16_b)">
<path fill-rule="evenodd" clip-rule="evenodd" d="M274.128 39.2001C274.001 41.4539 270.915 41.3629 268.619 41.2342C266.236 41.1007 263.002 40.9216 263.133 38.584C263.305 35.5209 265.941 33.1431 269.062 33.318C272.119 33.4893 274.296 36.2005 274.128 39.2001Z" fill="url(#paint39_linear)"/>
</g>
<g filter="url(#filter17_b)">
<path fill-rule="evenodd" clip-rule="evenodd" d="M220.187 40.7774C219.232 40.2423 218.565 39.2831 218.228 38.2378C217.932 37.3181 218.354 36.3758 218.458 35.413C218.562 34.4565 218.271 33.4009 218.837 32.6227C219.421 31.8207 220.484 31.6223 221.429 31.3299C222.466 31.0087 223.623 30.3173 224.567 30.8485C225.517 31.3828 225.248 32.8588 225.809 33.7953C226.385 34.7572 228.006 35.2346 227.862 36.3509C227.718 37.4754 225.977 37.5091 225.223 38.3555C224.469 39.2016 224.551 40.7208 223.532 41.2109C222.49 41.7121 221.192 41.3407 220.187 40.7774Z" fill="url(#paint40_linear)"/>
</g>
<g filter="url(#filter18_b)">
<path fill-rule="evenodd" clip-rule="evenodd" d="M226.782 36.4355C228.265 36.4355 230 36.9317 230 38.3126C230 39.5572 228.118 39.3969 226.782 39.3969C225.236 39.3969 223 39.7516 223 38.3126C223 36.7542 225.108 36.4355 226.782 36.4355Z" fill="url(#paint41_linear)"/>
</g>
<g filter="url(#filter19_b)">
<path fill-rule="evenodd" clip-rule="evenodd" d="M227.712 34.4773C228.104 34.4599 228.442 34.697 228.781 34.894C229.065 35.0593 229.29 35.2784 229.51 35.5226C229.778 35.8191 230.149 36.07 230.2 36.4662C230.254 36.8851 230.108 37.3621 229.781 37.6286C229.464 37.8862 228.977 37.6269 228.595 37.7724C228.136 37.9478 227.866 38.6241 227.38 38.5448C226.916 38.469 226.705 37.887 226.558 37.4398C226.435 37.0619 226.644 36.6768 226.639 36.2793C226.634 35.8385 226.303 35.3727 226.528 34.994C226.754 34.6147 227.271 34.4969 227.712 34.4773Z" fill="url(#paint42_linear)"/>
</g>
<g filter="url(#filter20_b)">
<path fill-rule="evenodd" clip-rule="evenodd" d="M237.897 35C239.657 35 241 36.4955 241 38.2399C241 39.8535 239.525 41 237.897 41C235.697 41 233 40.4201 233 38.2399C233 35.9612 235.598 35 237.897 35Z" fill="url(#paint43_linear)"/>
</g>
<g filter="url(#filter21_b)">
<path fill-rule="evenodd" clip-rule="evenodd" d="M230.66 33.4355C232.301 33.4355 234 34.8137 234 37.3023C234 39.8553 232.344 41.4355 230.66 41.4355C229.414 41.4355 229 39.1924 229 37.3023C229 35.5002 229.472 33.4355 230.66 33.4355Z" fill="url(#paint44_linear)"/>
</g>
<g filter="url(#filter22_b)">
<path fill-rule="evenodd" clip-rule="evenodd" d="M240 38.8414C240 38.1345 240.52 37.4355 241.368 37.4355C242.284 37.4355 243 38.0773 243 38.8414C243 39.4212 242.063 39.4355 241.368 39.4355C240.765 39.4355 240 39.3435 240 38.8414Z" fill="url(#paint45_linear)"/>
</g>
</g>
<defs>
<filter id="filter0_b" x="280" y="26" width="27" height="24" filterUnits="userSpaceOnUse" color-interpolation-filters="sRGB">
<feFlood flood-opacity="0" result="BackgroundImageFix"/>
<feGaussianBlur in="BackgroundImage" stdDeviation="5"/>
<feComposite in2="SourceAlpha" operator="in" result="effect1_backgroundBlur"/>
<feBlend mode="normal" in="SourceGraphic" in2="effect1_backgroundBlur" result="shape"/>
</filter>
<filter id="filter1_b" x="91" y="24" width="31" height="29" filterUnits="userSpaceOnUse" color-interpolation-filters="sRGB">
<feFlood flood-opacity="0" result="BackgroundImageFix"/>
<feGaussianBlur in="BackgroundImage" stdDeviation="5"/>
<feComposite in2="SourceAlpha" operator="in" result="effect1_backgroundBlur"/>
<feBlend mode="normal" in="SourceGraphic" in2="effect1_backgroundBlur" result="shape"/>
</filter>
<filter id="filter2_b" x="267" y="24" width="31" height="29" filterUnits="userSpaceOnUse" color-interpolation-filters="sRGB">
<feFlood flood-opacity="0" result="BackgroundImageFix"/>
<feGaussianBlur in="BackgroundImage" stdDeviation="5"/>
<feComposite in2="SourceAlpha" operator="in" result="effect1_backgroundBlur"/>
<feBlend mode="normal" in="SourceGraphic" in2="effect1_backgroundBlur" result="shape"/>
</filter>
<filter id="filter3_b" x="286" y="24" width="31" height="29" filterUnits="userSpaceOnUse" color-interpolation-filters="sRGB">
<feFlood flood-opacity="0" result="BackgroundImageFix"/>
<feGaussianBlur in="BackgroundImage" stdDeviation="5"/>
<feComposite in2="SourceAlpha" operator="in" result="effect1_backgroundBlur"/>
<feBlend mode="normal" in="SourceGraphic" in2="effect1_backgroundBlur" result="shape"/>
</filter>
<filter id="filter4_b" x="18" y="23" width="32.3517" height="29.2574" filterUnits="userSpaceOnUse" color-interpolation-filters="sRGB">
<feFlood flood-opacity="0" result="BackgroundImageFix"/>
<feGaussianBlur in="BackgroundImage" stdDeviation="5"/>
<feComposite in2="SourceAlpha" operator="in" result="effect1_backgroundBlur"/>
<feBlend mode="normal" in="SourceGraphic" in2="effect1_backgroundBlur" result="shape"/>
</filter>
<filter id="filter5_b" x="54" y="20" width="27" height="30" filterUnits="userSpaceOnUse" color-interpolation-filters="sRGB">
<feFlood flood-opacity="0" result="BackgroundImageFix"/>
<feGaussianBlur in="BackgroundImage" stdDeviation="5"/>
<feComposite in2="SourceAlpha" operator="in" result="effect1_backgroundBlur"/>
<feBlend mode="normal" in="SourceGraphic" in2="effect1_backgroundBlur" result="shape"/>
</filter>
<filter id="filter6_b" x="229" y="21" width="31.0399" height="32.1556" filterUnits="userSpaceOnUse" color-interpolation-filters="sRGB">
<feFlood flood-opacity="0" result="BackgroundImageFix"/>
<feGaussianBlur in="BackgroundImage" stdDeviation="5"/>
<feComposite in2="SourceAlpha" operator="in" result="effect1_backgroundBlur"/>
<feBlend mode="normal" in="SourceGraphic" in2="effect1_backgroundBlur" result="shape"/>
</filter>
<filter id="filter7_b" x="6" y="26" width="31" height="25" filterUnits="userSpaceOnUse" color-interpolation-filters="sRGB">
<feFlood flood-opacity="0" result="BackgroundImageFix"/>
<feGaussianBlur in="BackgroundImage" stdDeviation="5"/>
<feComposite in2="SourceAlpha" operator="in" result="effect1_backgroundBlur"/>
<feBlend mode="normal" in="SourceGraphic" in2="effect1_backgroundBlur" result="shape"/>
</filter>
<filter id="filter8_b" x="179" y="26" width="31" height="25" filterUnits="userSpaceOnUse" color-interpolation-filters="sRGB">
<feFlood flood-opacity="0" result="BackgroundImageFix"/>
<feGaussianBlur in="BackgroundImage" stdDeviation="5"/>
<feComposite in2="SourceAlpha" operator="in" result="effect1_backgroundBlur"/>
<feBlend mode="normal" in="SourceGraphic" in2="effect1_backgroundBlur" result="shape"/>
</filter>
<filter id="filter9_b" x="140" y="24" width="28.3868" height="28.3962" filterUnits="userSpaceOnUse" color-interpolation-filters="sRGB">
<feFlood flood-opacity="0" result="BackgroundImageFix"/>
<feGaussianBlur in="BackgroundImage" stdDeviation="5"/>
<feComposite in2="SourceAlpha" operator="in" result="effect1_backgroundBlur"/>
<feBlend mode="normal" in="SourceGraphic" in2="effect1_backgroundBlur" result="shape"/>
</filter>
<filter id="filter10_b" x="41" y="26" width="25.6277" height="24.7426" filterUnits="userSpaceOnUse" color-interpolation-filters="sRGB">
<feFlood flood-opacity="0" result="BackgroundImageFix"/>
<feGaussianBlur in="BackgroundImage" stdDeviation="5"/>
<feComposite in2="SourceAlpha" operator="in" result="effect1_backgroundBlur"/>
<feBlend mode="normal" in="SourceGraphic" in2="effect1_backgroundBlur" result="shape"/>
</filter>
<filter id="filter11_b" x="-10" y="26" width="29" height="28" filterUnits="userSpaceOnUse" color-interpolation-filters="sRGB">
<feFlood flood-opacity="0" result="BackgroundImageFix"/>
<feGaussianBlur in="BackgroundImage" stdDeviation="5"/>
<feComposite in2="SourceAlpha" operator="in" result="effect1_backgroundBlur"/>
<feBlend mode="normal" in="SourceGraphic" in2="effect1_backgroundBlur" result="shape"/>
</filter>
<filter id="filter12_b" x="58" y="26" width="27" height="24" filterUnits="userSpaceOnUse" color-interpolation-filters="sRGB">
<feFlood flood-opacity="0" result="BackgroundImageFix"/>
<feGaussianBlur in="BackgroundImage" stdDeviation="5"/>
<feComposite in2="SourceAlpha" operator="in" result="effect1_backgroundBlur"/>
<feBlend mode="normal" in="SourceGraphic" in2="effect1_backgroundBlur" result="shape"/>
</filter>
<filter id="filter13_b" x="238" y="26" width="27" height="24" filterUnits="userSpaceOnUse" color-interpolation-filters="sRGB">
<feFlood flood-opacity="0" result="BackgroundImageFix"/>
<feGaussianBlur in="BackgroundImage" stdDeviation="5"/>
<feComposite in2="SourceAlpha" operator="in" result="effect1_backgroundBlur"/>
<feBlend mode="normal" in="SourceGraphic" in2="effect1_backgroundBlur" result="shape"/>
</filter>
<filter id="filter14_b" x="129" y="25" width="27.4427" height="27.4667" filterUnits="userSpaceOnUse" color-interpolation-filters="sRGB">
<feFlood flood-opacity="0" result="BackgroundImageFix"/>
<feGaussianBlur in="BackgroundImage" stdDeviation="5"/>
<feComposite in2="SourceAlpha" operator="in" result="effect1_backgroundBlur"/>
<feBlend mode="normal" in="SourceGraphic" in2="effect1_backgroundBlur" result="shape"/>
</filter>
<filter id="filter15_b" x="73.002" y="23.0032" width="31.4383" height="28.5323" filterUnits="userSpaceOnUse" color-interpolation-filters="sRGB">
<feFlood flood-opacity="0" result="BackgroundImageFix"/>
<feGaussianBlur in="BackgroundImage" stdDeviation="5"/>
<feComposite in2="SourceAlpha" operator="in" result="effect1_backgroundBlur"/>
<feBlend mode="normal" in="SourceGraphic" in2="effect1_backgroundBlur" result="shape"/>
</filter>
<filter id="filter16_b" x="253.002" y="23.0032" width="31.4383" height="28.5323" filterUnits="userSpaceOnUse" color-interpolation-filters="sRGB">
<feFlood flood-opacity="0" result="BackgroundImageFix"/>
<feGaussianBlur in="BackgroundImage" stdDeviation="5"/>
<feComposite in2="SourceAlpha" operator="in" result="effect1_backgroundBlur"/>
<feBlend mode="normal" in="SourceGraphic" in2="effect1_backgroundBlur" result="shape"/>
</filter>
<filter id="filter17_b" x="206" y="19" width="33.3996" height="33.9342" filterUnits="userSpaceOnUse" color-interpolation-filters="sRGB">
<feFlood flood-opacity="0" result="BackgroundImageFix"/>
<feGaussianBlur in="BackgroundImage" stdDeviation="5"/>
<feComposite in2="SourceAlpha" operator="in" result="effect1_backgroundBlur"/>
<feBlend mode="normal" in="SourceGraphic" in2="effect1_backgroundBlur" result="shape"/>
</filter>
<filter id="filter18_b" x="213" y="26.4355" width="27" height="23" filterUnits="userSpaceOnUse" color-interpolation-filters="sRGB">
<feFlood flood-opacity="0" result="BackgroundImageFix"/>
<feGaussianBlur in="BackgroundImage" stdDeviation="5"/>
<feComposite in2="SourceAlpha" operator="in" result="effect1_backgroundBlur"/>
<feBlend mode="normal" in="SourceGraphic" in2="effect1_backgroundBlur" result="shape"/>
</filter>
<filter id="filter19_b" x="215.878" y="23.927" width="24.6703" height="24.7906" filterUnits="userSpaceOnUse" color-interpolation-filters="sRGB">
<feFlood flood-opacity="0" result="BackgroundImageFix"/>
<feGaussianBlur in="BackgroundImage" stdDeviation="5"/>
<feComposite in2="SourceAlpha" operator="in" result="effect1_backgroundBlur"/>
<feBlend mode="normal" in="SourceGraphic" in2="effect1_backgroundBlur" result="shape"/>
</filter>
<filter id="filter20_b" x="223" y="25" width="28" height="26" filterUnits="userSpaceOnUse" color-interpolation-filters="sRGB">
<feFlood flood-opacity="0" result="BackgroundImageFix"/>
<feGaussianBlur in="BackgroundImage" stdDeviation="5"/>
<feComposite in2="SourceAlpha" operator="in" result="effect1_backgroundBlur"/>
<feBlend mode="normal" in="SourceGraphic" in2="effect1_backgroundBlur" result="shape"/>
</filter>
<filter id="filter21_b" x="219" y="23.4355" width="25" height="28" filterUnits="userSpaceOnUse" color-interpolation-filters="sRGB">
<feFlood flood-opacity="0" result="BackgroundImageFix"/>
<feGaussianBlur in="BackgroundImage" stdDeviation="5"/>
<feComposite in2="SourceAlpha" operator="in" result="effect1_backgroundBlur"/>
<feBlend mode="normal" in="SourceGraphic" in2="effect1_backgroundBlur" result="shape"/>
</filter>
<filter id="filter22_b" x="230" y="27.4355" width="23" height="22" filterUnits="userSpaceOnUse" color-interpolation-filters="sRGB">
<feFlood flood-opacity="0" result="BackgroundImageFix"/>
<feGaussianBlur in="BackgroundImage" stdDeviation="5"/>
<feComposite in2="SourceAlpha" operator="in" result="effect1_backgroundBlur"/>
<feBlend mode="normal" in="SourceGraphic" in2="effect1_backgroundBlur" result="shape"/>
</filter>
<linearGradient id="paint0_linear" x1="293.5" y1="40" x2="293.5" y2="36" gradientUnits="userSpaceOnUse">
<stop stop-color="#9683BC"/>
<stop offset="1" stop-color="#2B426D"/>
</linearGradient>
<linearGradient id="paint1_linear" x1="106.5" y1="34" x2="106.5" y2="43" gradientUnits="userSpaceOnUse">
<stop stop-color="#9683BC"/>
<stop offset="1" stop-color="#2B426D" stop-opacity="0"/>
</linearGradient>
<linearGradient id="paint2_linear" x1="282.5" y1="34" x2="282.5" y2="43" gradientUnits="userSpaceOnUse">
<stop stop-color="#9683BC"/>
<stop offset="1" stop-color="#2B426D" stop-opacity="0"/>
</linearGradient>
<linearGradient id="paint3_linear" x1="301.5" y1="34" x2="301.5" y2="43" gradientUnits="userSpaceOnUse">
<stop stop-color="#9683BC"/>
<stop offset="1" stop-color="#2B426D" stop-opacity="0"/>
</linearGradient>
<linearGradient id="paint4_linear" x1="34.1758" y1="33" x2="34.1758" y2="42.2574" gradientUnits="userSpaceOnUse">
<stop stop-color="#9683BC"/>
<stop offset="1" stop-color="#2B426D" stop-opacity="0"/>
</linearGradient>
<linearGradient id="paint5_linear" x1="81.5" y1="29" x2="81.5" y2="43" gradientUnits="userSpaceOnUse">
<stop stop-color="#24FF00"/>
<stop offset="1" stop-color="#435C3F"/>
</linearGradient>
<linearGradient id="paint6_linear" x1="67.5" y1="30" x2="67.5" y2="40" gradientUnits="userSpaceOnUse">
<stop stop-color="#9683BC"/>
<stop offset="1" stop-color="#2B426D" stop-opacity="0"/>
</linearGradient>
<linearGradient id="paint7_linear" x1="247.001" y1="32.7369" x2="242.039" y2="41.4186" gradientUnits="userSpaceOnUse">
<stop stop-color="#9683BC"/>
<stop offset="1" stop-color="#2B426D" stop-opacity="0"/>
</linearGradient>
<linearGradient id="paint8_linear" x1="96.5" y1="31" x2="96.5" y2="45" gradientUnits="userSpaceOnUse">
<stop stop-color="#24FF00"/>
<stop offset="1" stop-color="#435C3F"/>
</linearGradient>
<linearGradient id="paint9_linear" x1="113.5" y1="28" x2="113.5" y2="42" gradientUnits="userSpaceOnUse">
<stop stop-color="#24FF00"/>
<stop offset="1" stop-color="#435C3F"/>
</linearGradient>
<linearGradient id="paint10_linear" x1="128.5" y1="30" x2="128.5" y2="44" gradientUnits="userSpaceOnUse">
<stop stop-color="#24FF00"/>
<stop offset="1" stop-color="#435C3F"/>
</linearGradient>
<linearGradient id="paint11_linear" x1="142.5" y1="29" x2="142.5" y2="43" gradientUnits="userSpaceOnUse">
<stop stop-color="#24FF00"/>
<stop offset="1" stop-color="#435C3F"/>
</linearGradient>
<linearGradient id="paint12_linear" x1="42.5" y1="29" x2="42.5" y2="43" gradientUnits="userSpaceOnUse">
<stop stop-color="#24FF00"/>
<stop offset="1" stop-color="#435C3F"/>
</linearGradient>
<linearGradient id="paint13_linear" x1="10.5" y1="29" x2="10.5" y2="43" gradientUnits="userSpaceOnUse">
<stop stop-color="#24FF00"/>
<stop offset="1" stop-color="#435C3F"/>
</linearGradient>
<linearGradient id="paint14_linear" x1="160.5" y1="31" x2="160.5" y2="45" gradientUnits="userSpaceOnUse">
<stop stop-color="#24FF00"/>
<stop offset="1" stop-color="#435C3F"/>
</linearGradient>
<linearGradient id="paint15_linear" x1="60.5" y1="31" x2="60.5" y2="45" gradientUnits="userSpaceOnUse">
<stop stop-color="#24FF00"/>
<stop offset="1" stop-color="#435C3F"/>
</linearGradient>
<linearGradient id="paint16_linear" x1="28.5" y1="31" x2="28.5" y2="45" gradientUnits="userSpaceOnUse">
<stop stop-color="#24FF00"/>
<stop offset="1" stop-color="#435C3F"/>
</linearGradient>
<linearGradient id="paint17_linear" x1="223" y1="19" x2="223" y2="57" gradientUnits="userSpaceOnUse">
<stop stop-color="#AA7F10"/>
<stop offset="0.911458" stop-color="#435C3F"/>
</linearGradient>
<linearGradient id="paint18_linear" x1="216.37" y1="27" x2="216.37" y2="51" gradientUnits="userSpaceOnUse">
<stop stop-color="#24FF00"/>
<stop offset="1" stop-color="#435C3F"/>
</linearGradient>
<linearGradient id="paint19_linear" x1="273.5" y1="30" x2="273.5" y2="44" gradientUnits="userSpaceOnUse">
<stop stop-color="#24FF00"/>
<stop offset="1" stop-color="#435C3F"/>
</linearGradient>
<linearGradient id="paint20_linear" x1="292.5" y1="32" x2="292.5" y2="46" gradientUnits="userSpaceOnUse">
<stop stop-color="#24FF00"/>
<stop offset="1" stop-color="#435C3F"/>
</linearGradient>
<linearGradient id="paint21_linear" x1="254.5" y1="30" x2="254.5" y2="44" gradientUnits="userSpaceOnUse">
<stop stop-color="#24FF00"/>
<stop offset="1" stop-color="#435C3F"/>
</linearGradient>
<linearGradient id="paint22_linear" x1="235.5" y1="31" x2="235.5" y2="45" gradientUnits="userSpaceOnUse">
<stop stop-color="#24FF00"/>
<stop offset="1" stop-color="#435C3F"/>
</linearGradient>
<linearGradient id="paint23_linear" x1="210.5" y1="32" x2="210.5" y2="46" gradientUnits="userSpaceOnUse">
<stop stop-color="#24FF00"/>
<stop offset="1" stop-color="#435C3F"/>
</linearGradient>
<linearGradient id="paint24_linear" x1="191.5" y1="32" x2="191.5" y2="46" gradientUnits="userSpaceOnUse">
<stop stop-color="#24FF00"/>
<stop offset="1" stop-color="#435C3F"/>
</linearGradient>
<linearGradient id="paint25_linear" x1="308.5" y1="29" x2="308.5" y2="43" gradientUnits="userSpaceOnUse">
<stop stop-color="#24FF00"/>
<stop offset="1" stop-color="#435C3F"/>
</linearGradient>
<linearGradient id="paint26_linear" x1="330.5" y1="31" x2="330.5" y2="45" gradientUnits="userSpaceOnUse">
<stop stop-color="#24FF00"/>
<stop offset="1" stop-color="#435C3F"/>
</linearGradient>
<linearGradient id="paint27_linear" x1="171.456" y1="29" x2="171.456" y2="53" gradientUnits="userSpaceOnUse">
<stop stop-color="#24FF00"/>
<stop offset="1" stop-color="#435C3F"/>
</linearGradient>
<linearGradient id="paint28_linear" x1="139" y1="21" x2="139" y2="105" gradientUnits="userSpaceOnUse">
<stop stop-color="#24FF00"/>
<stop offset="0.140625" stop-color="#435C3F"/>
</linearGradient>
<linearGradient id="paint29_linear" x1="175.5" y1="0" x2="175.5" y2="46" gradientUnits="userSpaceOnUse">
<stop stop-color="#24FF00"/>
<stop offset="1" stop-color="#435C3F"/>
</linearGradient>
<linearGradient id="paint30_linear" x1="21.5" y1="36" x2="21.5" y2="41" gradientUnits="userSpaceOnUse">
<stop stop-color="#9683BC"/>
<stop offset="1" stop-color="#2B426D" stop-opacity="0"/>
</linearGradient>
<linearGradient id="paint31_linear" x1="194.5" y1="36" x2="194.5" y2="41" gradientUnits="userSpaceOnUse">
<stop stop-color="#9683BC"/>
<stop offset="1" stop-color="#2B426D" stop-opacity="0"/>
</linearGradient>
<linearGradient id="paint32_linear" x1="156.456" y1="40.1034" x2="151.93" y2="36.2928" gradientUnits="userSpaceOnUse">
<stop stop-color="#9683BC"/>
<stop offset="1" stop-color="#2B426D" stop-opacity="0"/>
</linearGradient>
<linearGradient id="paint33_linear" x1="53.3474" y1="40.1138" x2="54.2812" y2="36.629" gradientUnits="userSpaceOnUse">
<stop stop-color="#9683BC"/>
<stop offset="1" stop-color="#2B426D" stop-opacity="0"/>
</linearGradient>
<linearGradient id="paint34_linear" x1="4.5" y1="36" x2="4.5" y2="44" gradientUnits="userSpaceOnUse">
<stop stop-color="#9683BC"/>
<stop offset="1" stop-color="#2B426D" stop-opacity="0"/>
</linearGradient>
<linearGradient id="paint35_linear" x1="71.5" y1="40" x2="71.5" y2="36" gradientUnits="userSpaceOnUse">
<stop stop-color="#9683BC"/>
<stop offset="1" stop-color="#2B426D"/>
</linearGradient>
<linearGradient id="paint36_linear" x1="251.5" y1="40" x2="251.5" y2="36" gradientUnits="userSpaceOnUse">
<stop stop-color="#9683BC"/>
<stop offset="1" stop-color="#2B426D"/>
</linearGradient>
<linearGradient id="paint37_linear" x1="143.615" y1="35.8886" x2="141.827" y2="41.5781" gradientUnits="userSpaceOnUse">
<stop stop-color="#9683BC"/>
<stop offset="1" stop-color="#2B426D" stop-opacity="0"/>
</linearGradient>
<linearGradient id="paint38_linear" x1="94.2186" y1="37.5775" x2="83.224" y2="36.9613" gradientUnits="userSpaceOnUse">
<stop stop-color="#9683BC"/>
<stop offset="1" stop-color="#2B426D" stop-opacity="0"/>
</linearGradient>
<linearGradient id="paint39_linear" x1="274.219" y1="37.5775" x2="263.224" y2="36.9613" gradientUnits="userSpaceOnUse">
<stop stop-color="#9683BC"/>
<stop offset="1" stop-color="#2B426D" stop-opacity="0"/>
</linearGradient>
<linearGradient id="paint40_linear" x1="220.503" y1="40.9479" x2="224.897" y2="30.9865" gradientUnits="userSpaceOnUse">
<stop stop-color="#9683BC"/>
<stop offset="1" stop-color="#2B426D" stop-opacity="0"/>
</linearGradient>
<linearGradient id="paint41_linear" x1="226.5" y1="36.4355" x2="226.5" y2="39.4355" gradientUnits="userSpaceOnUse">
<stop stop-color="#9683BC"/>
<stop offset="1" stop-color="#2B426D" stop-opacity="0"/>
</linearGradient>
<linearGradient id="paint42_linear" x1="227.702" y1="34.4157" x2="228.724" y2="38.2287" gradientUnits="userSpaceOnUse">
<stop stop-color="#9683BC"/>
<stop offset="1" stop-color="#2B426D" stop-opacity="0"/>
</linearGradient>
<linearGradient id="paint43_linear" x1="237" y1="35" x2="237" y2="41" gradientUnits="userSpaceOnUse">
<stop stop-color="#9683BC"/>
<stop offset="1" stop-color="#2B426D" stop-opacity="0"/>
</linearGradient>
<linearGradient id="paint44_linear" x1="231.5" y1="33.4355" x2="231.5" y2="41.4355" gradientUnits="userSpaceOnUse">
<stop stop-color="#9683BC"/>
<stop offset="1" stop-color="#2B426D" stop-opacity="0"/>
</linearGradient>
<linearGradient id="paint45_linear" x1="240" y1="38.4355" x2="243" y2="38.4355" gradientUnits="userSpaceOnUse">
<stop stop-color="#9683BC"/>
<stop offset="1" stop-color="#2B426D" stop-opacity="0"/>
</linearGradient>
<clipPath id="clip0">
<rect width="320" height="39" fill="white"/>
</clipPath>
</defs>
</svg>
