<svg width="10680" height="1780" viewBox="0 0 10680 1780" fill="none" xmlns="http://www.w3.org/2000/svg">
<g clip-path="url(#clip0)">
<path d="M10680 0H0V1780H10680V0Z" fill="url(#paint0_linear)"/>
<path d="M10680 0H0V1780H10680V0Z" fill="url(#paint1_linear)" fill-opacity="0.2"/>
<path d="M6520.58 -1110H-5365.86V1504H6520.58V-1110Z" fill="url(#paint2_radial)"/>
<path d="M0 864H3904.28V1069H4239.21V1271H6506.55V1158H8409.15V961H8865.95L8866.39 799H9669.08V502H10680V1780H0V864Z" fill="url(#paint3_linear)"/>
<path d="M0 864H3904.28V1069H4239.21V1271H6506.55V1158H8409.15V961H8865.95L8866.39 799H9669.08V502H10680V1780H0V864Z" fill="url(#paint4_linear)" fill-opacity="0.2"/>
<path d="M9537.56 773H9562.99C9562.99 773 9564.3 1038 9562.55 1103C9562.55 1169 9662.06 1103 9662.06 1207.5C9662.06 1312 9662.94 1364 9662.94 1364H9637.51C9637.51 1364 9637.08 1309.5 9637.08 1214.5C9637.08 1119.5 9537.56 1201 9537.56 1097.5C9537.56 994 9537.56 773 9537.56 773Z" fill="url(#paint5_linear)"/>
<path d="M9746.32 1360.32C9719.4 1408.77 9685.56 1399.98 9662.85 1384.99V1355.99C9679.16 1384.99 9709.5 1388 9733.43 1350.36L9746.32 1360.32Z" fill="url(#paint6_radial)"/>
<path d="M9749.74 1440.35C9691.35 1442.95 9677.32 1408.77 9662.85 1402.28V1373.27C9679.16 1402.28 9715.99 1420.45 9748.25 1422.61L9749.74 1440.35Z" fill="url(#paint7_radial)"/>
<path d="M9710.29 1496.57C9671.62 1463.26 9668.55 1439.92 9649.61 1403.99L9666.27 1394.9C9676.88 1426.05 9685.21 1452.01 9721.69 1482.3L9710.29 1496.57Z" fill="url(#paint8_radial)"/>
<path d="M9554.4 1360.32C9581.31 1408.77 9615.16 1399.98 9637.86 1384.99V1355.99C9621.56 1384.99 9591.22 1388 9567.28 1350.36L9554.4 1360.32Z" fill="url(#paint9_radial)"/>
<path d="M9550.98 1440.35C9609.37 1442.95 9623.4 1408.77 9637.86 1402.28V1373.27C9621.56 1402.28 9584.73 1420.45 9552.47 1422.61L9550.98 1440.35Z" fill="url(#paint10_radial)"/>
<path d="M9590.43 1496.57C9629.1 1463.26 9632.52 1439.92 9651.46 1403.99L9634.45 1394.9C9623.84 1426.05 9615.42 1452.01 9579.03 1482.3L9590.43 1496.57Z" fill="url(#paint11_radial)"/>
<path d="M9657.59 1513.01H9642.42L9641.99 1403.99H9657.94L9657.59 1513.01Z" fill="url(#paint12_radial)"/>
<path d="M9667.76 1403.99H9632.17V1353.8H9667.76V1403.99Z" fill="url(#paint13_radial)"/>
<path d="M9634.44 1363.32H9666.31C9678.25 1363.32 9687.93 1352.28 9687.93 1338.66C9687.93 1325.04 9678.25 1314 9666.31 1314H9634.44C9622.5 1314 9612.82 1325.04 9612.82 1338.66C9612.82 1352.28 9622.5 1363.32 9634.44 1363.32Z" fill="url(#paint14_radial)"/>
<path d="M9428.06 1190.69H9451.2V773.002H9428.06V1190.69Z" fill="url(#paint15_linear)"/>
<path d="M9525.72 1187.99C9501.61 1231.47 9471.19 1223.58 9450.85 1210.13V1184.11C9465.49 1210.13 9492.76 1212.83 9514.15 1179.06L9525.72 1187.99Z" fill="url(#paint16_radial)"/>
<path d="M9528.79 1259.8C9476.45 1262.13 9463.82 1231.46 9450.85 1225.64V1199.62C9465.49 1225.64 9498.55 1241.95 9527.48 1243.89L9528.79 1259.8Z" fill="url(#paint17_radial)"/>
<path d="M9493.46 1310.25C9458.74 1280.36 9456.02 1259.41 9439.01 1227.18L9453.92 1219.03C9463.47 1246.97 9470.93 1270.27 9503.63 1297.44L9493.46 1310.25Z" fill="url(#paint18_radial)"/>
<path d="M9353.53 1187.99C9377.73 1231.47 9408.06 1223.58 9428.4 1210.13V1184.11C9413.76 1210.13 9386.58 1212.83 9365.1 1179.06L9353.53 1187.99Z" fill="url(#paint19_radial)"/>
<path d="M9350.46 1259.8C9402.89 1262.13 9415.51 1231.46 9428.4 1225.64V1199.62C9413.76 1225.64 9380.79 1241.95 9351.86 1243.89L9350.46 1259.8Z" fill="url(#paint20_radial)"/>
<path d="M9385.88 1310.25C9420.6 1280.36 9423.67 1259.41 9440.68 1227.18L9425.33 1219.03C9415.87 1246.97 9408.33 1270.27 9375.71 1297.44L9385.88 1310.25Z" fill="url(#paint21_radial)"/>
<path d="M9446.11 1325H9432.52L9432.17 1227.18H9446.46L9446.11 1325Z" fill="url(#paint22_radial)"/>
<path d="M9455.32 1227.18H9423.32V1182.15H9455.32V1227.18Z" fill="url(#paint23_radial)"/>
<path d="M9425.39 1190.69H9453.98C9464.7 1190.69 9473.38 1180.78 9473.38 1168.56C9473.38 1156.34 9464.7 1146.44 9453.98 1146.44H9425.39C9414.68 1146.44 9405.99 1156.34 9405.99 1168.56C9405.99 1180.78 9414.68 1190.69 9425.39 1190.69Z" fill="url(#paint24_radial)"/>
</g>
<defs>
<linearGradient id="paint0_linear" x1="-89.4311" y1="1780" x2="10680" y2="1780" gradientUnits="userSpaceOnUse">
<stop stop-color="#3F6C75"/>
<stop offset="0.40296" stop-color="#3F4D4D"/>
<stop offset="0.616147" stop-color="#5D8E7C"/>
<stop offset="1" stop-color="#D9D068"/>
</linearGradient>
<linearGradient id="paint1_linear" x1="5340" y1="0" x2="5340" y2="1269.5" gradientUnits="userSpaceOnUse">
<stop stop-color="#172A44"/>
<stop offset="1" stop-color="#47787E"/>
</linearGradient>
<radialGradient id="paint2_radial" cx="0" cy="0" r="1" gradientUnits="userSpaceOnUse" gradientTransform="translate(578.707 195.461) rotate(90.0591) scale(1308.54 5950.23)">
<stop stop-color="#162943"/>
<stop offset="1" stop-color="#406C75" stop-opacity="0"/>
</radialGradient>
<linearGradient id="paint3_linear" x1="-89.4311" y1="1780" x2="10680" y2="1780" gradientUnits="userSpaceOnUse">
<stop stop-color="#0D2E3B"/>
<stop offset="0.40296" stop-color="#2C4659"/>
<stop offset="0.616147" stop-color="#6B838E"/>
<stop offset="1" stop-color="#9FB2BB"/>
</linearGradient>
<linearGradient id="paint4_linear" x1="5340" y1="502" x2="5340" y2="1780" gradientUnits="userSpaceOnUse">
<stop stop-color="#132B40"/>
<stop offset="1" stop-color="#0C2D39"/>
</linearGradient>
<linearGradient id="paint5_linear" x1="9546.77" y1="773" x2="9695.96" y2="1390.02" gradientUnits="userSpaceOnUse">
<stop stop-color="#213137"/>
<stop offset="1" stop-color="#3C9178"/>
</linearGradient>
<radialGradient id="paint6_radial" cx="0" cy="0" r="1" gradientUnits="userSpaceOnUse" gradientTransform="translate(9650.32 1381.92) rotate(91.5153) scale(100.407 122.726)">
<stop stop-color="#4AC399"/>
<stop offset="1" stop-color="#3A8A73"/>
</radialGradient>
<radialGradient id="paint7_radial" cx="0" cy="0" r="1" gradientUnits="userSpaceOnUse" gradientTransform="translate(9650.32 1381.92) rotate(91.5153) scale(100.407 122.727)">
<stop stop-color="#4AC399"/>
<stop offset="1" stop-color="#3A8A73"/>
</radialGradient>
<radialGradient id="paint8_radial" cx="0" cy="0" r="1" gradientUnits="userSpaceOnUse" gradientTransform="translate(9650.31 1381.92) rotate(91.5154) scale(100.407 122.73)">
<stop stop-color="#4AC399"/>
<stop offset="1" stop-color="#3A8A73"/>
</radialGradient>
<radialGradient id="paint9_radial" cx="0" cy="0" r="1" gradientUnits="userSpaceOnUse" gradientTransform="translate(9650.31 1381.92) rotate(91.5153) scale(100.407 122.728)">
<stop stop-color="#4AC399"/>
<stop offset="1" stop-color="#3A8A73"/>
</radialGradient>
<radialGradient id="paint10_radial" cx="0" cy="0" r="1" gradientUnits="userSpaceOnUse" gradientTransform="translate(9650.31 1381.92) rotate(91.5154) scale(100.407 122.728)">
<stop stop-color="#4AC399"/>
<stop offset="1" stop-color="#3A8A73"/>
</radialGradient>
<radialGradient id="paint11_radial" cx="0" cy="0" r="1" gradientUnits="userSpaceOnUse" gradientTransform="translate(9650.32 1381.92) rotate(91.5154) scale(100.407 122.729)">
<stop stop-color="#4AC399"/>
<stop offset="1" stop-color="#3A8A73"/>
</radialGradient>
<radialGradient id="paint12_radial" cx="0" cy="0" r="1" gradientUnits="userSpaceOnUse" gradientTransform="translate(9650.31 1381.92) rotate(91.5153) scale(100.407 122.726)">
<stop stop-color="#4AC399"/>
<stop offset="1" stop-color="#3A8A73"/>
</radialGradient>
<radialGradient id="paint13_radial" cx="0" cy="0" r="1" gradientUnits="userSpaceOnUse" gradientTransform="translate(9650.31 1381.92) rotate(91.5154) scale(100.407 122.73)">
<stop stop-color="#4AC399"/>
<stop offset="1" stop-color="#3A8A73"/>
</radialGradient>
<radialGradient id="paint14_radial" cx="0" cy="0" r="1" gradientUnits="userSpaceOnUse" gradientTransform="translate(9649.35 1339.09) rotate(90) scale(44.5618 67.8253)">
<stop stop-color="#4AC399"/>
<stop offset="1" stop-color="#3A8A73"/>
</radialGradient>
<linearGradient id="paint15_linear" x1="9439.63" y1="1190.69" x2="9439.63" y2="773" gradientUnits="userSpaceOnUse">
<stop stop-color="#49C198"/>
<stop offset="1" stop-color="#42A887"/>
</linearGradient>
<radialGradient id="paint16_radial" cx="0" cy="0" r="1" gradientUnits="userSpaceOnUse" gradientTransform="translate(9439.63 1207.38) rotate(91.5153) scale(90.0906 110.117)">
<stop stop-color="#3B8F76"/>
<stop offset="1" stop-color="#49C097"/>
</radialGradient>
<radialGradient id="paint17_radial" cx="0" cy="0" r="1" gradientUnits="userSpaceOnUse" gradientTransform="translate(9439.63 1207.38) rotate(91.5153) scale(90.0908 110.118)">
<stop stop-color="#3B8F76"/>
<stop offset="1" stop-color="#49C097"/>
</radialGradient>
<radialGradient id="paint18_radial" cx="0" cy="0" r="1" gradientUnits="userSpaceOnUse" gradientTransform="translate(9439.62 1207.38) rotate(91.5154) scale(90.0906 110.119)">
<stop stop-color="#3B8F76"/>
<stop offset="1" stop-color="#49C097"/>
</radialGradient>
<radialGradient id="paint19_radial" cx="0" cy="0" r="1" gradientUnits="userSpaceOnUse" gradientTransform="translate(9439.63 1207.38) rotate(91.5153) scale(90.0906 110.117)">
<stop stop-color="#3B8F76"/>
<stop offset="1" stop-color="#49C097"/>
</radialGradient>
<radialGradient id="paint20_radial" cx="0" cy="0" r="1" gradientUnits="userSpaceOnUse" gradientTransform="translate(9439.63 1207.38) rotate(91.5154) scale(90.0908 110.119)">
<stop stop-color="#3B8F76"/>
<stop offset="1" stop-color="#49C097"/>
</radialGradient>
<radialGradient id="paint21_radial" cx="0" cy="0" r="1" gradientUnits="userSpaceOnUse" gradientTransform="translate(9439.63 1207.38) rotate(91.5154) scale(90.0906 110.119)">
<stop stop-color="#3B8F76"/>
<stop offset="1" stop-color="#49C097"/>
</radialGradient>
<radialGradient id="paint22_radial" cx="0" cy="0" r="1" gradientUnits="userSpaceOnUse" gradientTransform="translate(9439.63 1207.38) rotate(91.5154) scale(90.0906 110.122)">
<stop stop-color="#3B8F76"/>
<stop offset="1" stop-color="#49C097"/>
</radialGradient>
<radialGradient id="paint23_radial" cx="0" cy="0" r="1" gradientUnits="userSpaceOnUse" gradientTransform="translate(9439.63 1207.38) rotate(91.5153) scale(90.0907 110.117)">
<stop stop-color="#3B8F76"/>
<stop offset="1" stop-color="#49C097"/>
</radialGradient>
<radialGradient id="paint24_radial" cx="0" cy="0" r="1" gradientUnits="userSpaceOnUse" gradientTransform="translate(9438.84 1168.95) rotate(90) scale(39.9832 60.8565)">
<stop stop-color="#4AC399"/>
<stop offset="1" stop-color="#3A8A73"/>
</radialGradient>
<clipPath id="clip0">
<rect width="10680" height="1780" fill="white"/>
</clipPath>
</defs>
</svg>
