<svg width="10680" height="1780" viewBox="0 0 10680 1780" fill="none" xmlns="http://www.w3.org/2000/svg">
<g clip-path="url(#clip0)">
<path d="M12181 0H0V1780H12181V0Z" fill="url(#paint0_linear)"/>
<path d="M12181 0H0V1780H12181V0Z" fill="url(#paint1_linear)" fill-opacity="0.2"/>
<path d="M7437 -1110H-6120V1504H7437V-1110Z" fill="url(#paint2_radial)"/>
<path d="M0 864H4453V1069H4835V1271H7421V1158H9591V961H10112L10112.5 799H11028V502H12181V1780H0V864Z" fill="url(#paint3_linear)"/>
<path d="M0 864H4453V1069H4835V1271H7421V1158H9591V961H10112L10112.5 799H11028V502H12181V1780H0V864Z" fill="url(#paint4_linear)" fill-opacity="0.2"/>
</g>
<defs>
<linearGradient id="paint0_linear" x1="-102" y1="1780" x2="12181" y2="1780" gradientUnits="userSpaceOnUse">
<stop stop-color="#3F6C75"/>
<stop offset="0.40296" stop-color="#3F4D4D"/>
<stop offset="0.616147" stop-color="#5D8E7C"/>
<stop offset="1" stop-color="#D9D068"/>
</linearGradient>
<linearGradient id="paint1_linear" x1="6090.5" y1="0" x2="6090.5" y2="1269.5" gradientUnits="userSpaceOnUse">
<stop stop-color="#172A44"/>
<stop offset="1" stop-color="#47787E"/>
</linearGradient>
<radialGradient id="paint2_radial" cx="0" cy="0" r="1" gradientUnits="userSpaceOnUse" gradientTransform="translate(660.04 195.461) rotate(90.0674) scale(1308.54 6786.49)">
<stop stop-color="#162943"/>
<stop offset="1" stop-color="#406C75" stop-opacity="0"/>
</radialGradient>
<linearGradient id="paint3_linear" x1="-102" y1="1780" x2="12181" y2="1780" gradientUnits="userSpaceOnUse">
<stop stop-color="#0D2E3B"/>
<stop offset="0.40296" stop-color="#2C4659"/>
<stop offset="0.616147" stop-color="#6B838E"/>
<stop offset="1" stop-color="#9FB2BB"/>
</linearGradient>
<linearGradient id="paint4_linear" x1="6090.5" y1="502" x2="6090.5" y2="1780" gradientUnits="userSpaceOnUse">
<stop stop-color="#132B40"/>
<stop offset="1" stop-color="#0C2D39"/>
</linearGradient>
<clipPath id="clip0">
<rect width="12181" height="1780" fill="white"/>
</clipPath>
</defs>
</svg>
