<svg width="5340" height="1780" viewBox="0 0 5340 1780" fill="none" xmlns="http://www.w3.org/2000/svg">
<g clip-path="url(#clip0)">
<path d="M8760 0H-3421V1780H8760V0Z" fill="url(#paint0_linear)"/>
<path d="M8760 0H-3421V1780H8760V0Z" fill="url(#paint1_linear)" fill-opacity="0.2"/>
<path d="M4016 -1110H-9541V1504H4016V-1110Z" fill="url(#paint2_radial)"/>
<path d="M-3421 864H1032V1069H1414V1271H4000V1158H6170V961H6691L6691.5 799H7607V502H8760V1780H-3421V864Z" fill="url(#paint3_linear)"/>
<path d="M-3421 864H1032V1069H1414V1271H4000V1158H6170V961H6691L6691.5 799H7607V502H8760V1780H-3421V864Z" fill="url(#paint4_linear)" fill-opacity="0.2"/>
</g>
<defs>
<linearGradient id="paint0_linear" x1="-3523" y1="1780" x2="8760" y2="1780" gradientUnits="userSpaceOnUse">
<stop stop-color="#3F6C75"/>
<stop offset="0.40296" stop-color="#3F4D4D"/>
<stop offset="0.616147" stop-color="#5D8E7C"/>
<stop offset="1" stop-color="#D9D068"/>
</linearGradient>
<linearGradient id="paint1_linear" x1="2669.5" y1="0" x2="2669.5" y2="1269.5" gradientUnits="userSpaceOnUse">
<stop stop-color="#172A44"/>
<stop offset="1" stop-color="#47787E"/>
</linearGradient>
<radialGradient id="paint2_radial" cx="0" cy="0" r="1" gradientUnits="userSpaceOnUse" gradientTransform="translate(-2760.96 195.461) rotate(90.0674) scale(1308.54 6786.49)">
<stop stop-color="#162943"/>
<stop offset="1" stop-color="#406C75" stop-opacity="0"/>
</radialGradient>
<linearGradient id="paint3_linear" x1="-3523" y1="1780" x2="8760" y2="1780" gradientUnits="userSpaceOnUse">
<stop stop-color="#0D2E3B"/>
<stop offset="0.40296" stop-color="#2C4659"/>
<stop offset="0.616147" stop-color="#6B838E"/>
<stop offset="1" stop-color="#9FB2BB"/>
</linearGradient>
<linearGradient id="paint4_linear" x1="2669.5" y1="502" x2="2669.5" y2="1780" gradientUnits="userSpaceOnUse">
<stop stop-color="#132B40"/>
<stop offset="1" stop-color="#0C2D39"/>
</linearGradient>
<clipPath id="clip0">
<rect width="12181" height="1780" fill="white" transform="translate(-3421)"/>
</clipPath>
</defs>
</svg>
