<svg width="86" height="126" viewBox="0 0 86 126" fill="none" xmlns="http://www.w3.org/2000/svg">
<path d="M44.193 80.2847H62.193C64.599 116.977 85.0075 113.969 82 126H45L44.193 80.2847Z" fill="url(#paint0_linear)"/>
<path d="M20 80H39C39 80 38.0076 124.797 35 126H11.2962C9.66608 126 8.50941 124.412 9.02231 122.864C13.4783 109.422 17.7645 99.0014 20 80Z" fill="url(#paint1_linear)"/>
<path d="M85.4151 93C85.4151 93 76.8736 93 45.7581 93C14.6426 93 0 86.2698 0 86.2698C10.9819 52.0067 -7.32129 0.000298751 45.7581 0C93.9566 3.0592 85.4151 41.6051 85.4151 93Z" fill="url(#paint2_linear)"/>
<rect x="50.2394" y="29.4087" width="8.57746" height="20.831" rx="4.28873" fill="black"/>
<rect x="68.6197" y="29.4087" width="8.57746" height="19.6056" rx="4.28873" fill="black"/>
<defs>
<linearGradient id="paint0_linear" x1="71.8405" y1="82.0892" x2="66.2242" y2="126.377" gradientUnits="userSpaceOnUse">
<stop stop-color="#512333"/>
<stop offset="1" stop-color="#743348"/>
</linearGradient>
<linearGradient id="paint1_linear" x1="30.4902" y1="81.8158" x2="23.5578" y2="126.009" gradientUnits="userSpaceOnUse">
<stop offset="0.338542" stop-color="#512333"/>
<stop offset="1" stop-color="#743348"/>
</linearGradient>
<linearGradient id="paint2_linear" x1="54.9097" y1="0.126778" x2="38.9597" y2="86.3801" gradientUnits="userSpaceOnUse">
<stop stop-color="#D65E85"/>
<stop offset="1" stop-color="#6D3044"/>
</linearGradient>
</defs>
</svg>
