<svg width="24" height="25" viewBox="0 0 24 25" fill="none" xmlns="http://www.w3.org/2000/svg">
<path d="M7.07031 7.10361C7.08668 7.12361 7.10122 7.13998 7.11758 7.15998C7.21577 7.27816 7.32122 7.40725 7.43577 7.54543C7.49213 7.61452 7.55213 7.68543 7.61213 7.75816C7.91577 8.12361 8.2594 8.53816 8.62122 8.97089C8.76486 9.14361 8.91213 9.31998 9.0594 9.49634C9.20668 9.6727 9.35577 9.85089 9.50304 10.0272C9.51213 10.0382 9.52122 10.0491 9.53031 10.06C9.59758 10.14 9.66304 10.22 9.73031 10.2982C9.74122 10.3109 9.75213 10.3254 9.76486 10.3382C9.81758 10.4 9.86849 10.4618 9.9194 10.5236C9.95213 10.5636 9.98486 10.6018 10.0176 10.6418C10.0267 10.6527 10.0358 10.6636 10.0449 10.6745C10.0649 10.7 10.0867 10.7236 10.1067 10.7491C10.1321 10.78 10.1576 10.8109 10.183 10.8418C10.1939 10.8563 10.2067 10.8691 10.2176 10.8836C10.2485 10.92 10.2794 10.9582 10.3103 10.9945C10.3321 11.02 10.3521 11.0454 10.3739 11.0709C10.3994 11.1018 10.4249 11.1327 10.4503 11.1636C10.4721 11.1909 10.4958 11.2163 10.5176 11.2436C10.5285 11.2563 10.5394 11.2709 10.5521 11.2836C10.5867 11.3254 10.6212 11.3672 10.6558 11.4072C10.6667 11.42 10.6776 11.4327 10.6885 11.4454C10.7085 11.4709 10.7303 11.4945 10.7503 11.5182C10.7721 11.5436 10.7921 11.5691 10.8139 11.5945C10.8249 11.6072 10.8339 11.6182 10.8449 11.6309C10.9721 11.7818 11.0903 11.9254 11.203 12.0582C11.2085 12.0636 11.2139 12.0709 11.2194 12.0763C11.2539 12.1163 11.2849 12.1545 11.3176 12.1927C11.3358 12.2145 11.3539 12.2363 11.3703 12.2563C11.3776 12.2654 11.3867 12.2763 11.3939 12.2854C11.4485 12.3491 11.4976 12.4091 11.5467 12.4672C11.6067 12.5382 11.663 12.6054 11.7121 12.6636C11.7267 12.6818 11.7394 12.6963 11.7521 12.7127L11.7539 12.7145C11.8067 12.7782 11.8539 12.8345 11.8921 12.88C11.8921 12.88 11.8921 12.88 11.8939 12.8818C11.9121 12.9036 11.9303 12.9236 11.9449 12.9418C11.9485 12.9454 11.9521 12.9472 11.9558 12.9509C11.9758 12.9654 12.0085 12.9672 12.0285 12.9509C12.0321 12.9472 12.0358 12.9454 12.0394 12.9418C12.0521 12.9272 12.0667 12.9091 12.083 12.8909C12.0939 12.8763 12.1067 12.8618 12.1194 12.8472C12.1485 12.8127 12.1812 12.7745 12.2158 12.7327C12.2285 12.7182 12.2394 12.7054 12.2503 12.6909C12.2539 12.6872 12.2558 12.6836 12.2594 12.68C12.2776 12.6582 12.2976 12.6345 12.3176 12.6109C12.3176 12.6091 12.3194 12.6091 12.3194 12.6091C12.3358 12.5891 12.3539 12.5673 12.3721 12.5454C12.3849 12.5291 12.3994 12.5127 12.4139 12.4945C12.4649 12.4327 12.5194 12.3691 12.5776 12.2982C12.5849 12.2891 12.5921 12.28 12.6012 12.2709C12.6249 12.2418 12.6521 12.2109 12.6776 12.18C12.7012 12.1527 12.7249 12.1236 12.7485 12.0945C12.8303 11.9963 12.9176 11.8927 13.0085 11.7836C13.0267 11.7636 13.043 11.7418 13.0612 11.7218C13.0667 11.7145 13.0739 11.7072 13.0794 11.7C13.1049 11.6691 13.1321 11.6382 13.1576 11.6054C13.1849 11.5727 13.2121 11.54 13.2412 11.5054C13.2576 11.4854 13.2739 11.4672 13.2903 11.4472C13.2976 11.4382 13.3049 11.4309 13.3121 11.4218C13.3503 11.3745 13.3903 11.3272 13.4303 11.28C13.4412 11.2672 13.4503 11.2563 13.4612 11.2436C13.4739 11.2291 13.4867 11.2145 13.4976 11.2C13.5958 11.0836 13.6958 10.9636 13.7976 10.84C13.8212 10.8109 13.8467 10.7818 13.8703 10.7527C13.8739 10.7491 13.8776 10.7436 13.8812 10.74C13.9121 10.7018 13.9449 10.6636 13.9776 10.6254C14.0049 10.5945 14.0303 10.5618 14.0576 10.5309C14.1085 10.4709 14.1594 10.4091 14.2103 10.3472C14.2249 10.3291 14.2394 10.3109 14.2558 10.2927C14.3212 10.2145 14.3867 10.1363 14.4521 10.0582C14.4612 10.0491 14.4685 10.0382 14.4776 10.0291C14.6249 9.8527 14.7721 9.67452 14.9212 9.49816C15.0685 9.32179 15.2158 9.14543 15.3594 8.9727C15.7194 8.53998 16.0649 8.12543 16.3685 7.75998C16.4285 7.68725 16.4885 7.61634 16.5449 7.54725C16.6594 7.40907 16.7649 7.27998 16.863 7.16179C16.8794 7.14179 16.8921 7.12543 16.9085 7.10725C15.6103 5.92543 13.8849 5.20361 11.9921 5.20361C10.0939 5.20361 8.36849 5.92361 7.07031 7.10361Z" fill="white"/>
<path d="M14.0861 15.9927C13.9825 15.8982 13.8189 15.9254 13.748 16.0472L12.6389 17.9745L12.3643 18.4491C12.3134 18.5363 12.2207 18.5909 12.1189 18.5909L11.988 18.5909L11.8607 18.5909L11.857 18.5909C11.7552 18.5909 11.6607 18.5363 11.6098 18.4472L11.608 18.4454L10.2261 16.0436C10.157 15.9218 9.99159 15.8963 9.88795 15.9891L8.85704 16.9091L7.42432 18.1891C8.67341 19.1909 10.2589 19.7909 11.9861 19.7909C13.7134 19.7909 15.2989 19.1909 16.5498 18.1872L15.9989 17.6945L14.0861 15.9927Z" fill="white"/>
<path d="M6.28652 11.8205C5.95198 11.2587 5.55925 10.5987 5.22834 10.0405C5.20471 10.0005 5.18107 9.96055 5.15743 9.92236C4.8538 10.7242 4.68652 11.5933 4.68652 12.5005C4.68652 13.4933 4.88471 14.4369 5.24471 15.2987L5.52289 14.9587L7.01743 13.1315C7.01925 13.1296 7.03198 13.1151 7.04834 13.0933C7.04652 13.0915 7.04471 13.0896 7.04289 13.086C6.99743 13.0151 6.68107 12.4842 6.28652 11.8205Z" fill="white"/>
<path d="M12 0.471191C5.37273 0.471191 -3.77346e-09 5.84028 -8.42863e-09 12.4639C-1.30838e-08 19.0876 5.37273 24.4566 12 24.4566C18.6273 24.4566 24 19.0876 24 12.4639C24 5.84028 18.6273 0.471191 12 0.471191ZM21.3818 18.7876L21.3764 18.7876L17.2364 18.7876C17.2309 18.7876 17.2236 18.7857 17.2182 18.7839C17.2164 18.7857 17.2164 18.7857 17.2145 18.7876L17.2127 18.7857C15.7945 19.9639 13.9727 20.673 11.9855 20.673C9.99818 20.673 8.17636 19.9639 6.76 18.7857L6.75818 18.7857C6.75636 18.7839 6.75636 18.7839 6.75455 18.7821C6.74909 18.7839 6.74364 18.7857 6.73636 18.7857L2.59636 18.7857L2.59091 18.7857C2.50909 18.7857 2.46545 18.6912 2.51636 18.6294L4.62 16.0566C4.09818 14.9803 3.80545 13.773 3.80545 12.4966C3.80545 7.9821 7.46727 4.3221 11.9855 4.3221C16.5036 4.3221 20.1655 7.9821 20.1655 12.4966C20.1655 13.7712 19.8727 14.9785 19.3527 16.0548L20.1509 17.0294L21.4564 18.6257L21.46 18.6294C21.5073 18.693 21.4636 18.7876 21.3818 18.7876Z" fill="white"/>
<path d="M18.7479 10.0386C18.4151 10.5968 18.0242 11.2568 17.6897 11.8186C17.2933 12.4841 16.9788 13.0132 16.9351 13.0859C16.9333 13.0877 16.9315 13.0895 16.9297 13.0913L16.957 13.1259C16.9588 13.1277 16.9588 13.1295 16.9606 13.1313L18.7297 15.295C19.0879 14.4332 19.2861 13.4895 19.2861 12.4986C19.2861 11.5913 19.1188 10.7241 18.817 9.92407C18.7933 9.96225 18.7715 10.0004 18.7479 10.0386Z" fill="white"/>
</svg>
