<svg width="20" height="20" viewBox="0 0 20 20" fill="none" xmlns="http://www.w3.org/2000/svg">
<path d="M10 0.5C4.375 0.5 0 4.875 0 10.5C0 17.0625 5.9375 19.875 6.875 19.875C7.5 19.875 7.5 19.5625 7.5 19.25V17.6875C5.3125 18.3125 4.375 17.0625 4.0625 16.125C4.0625 16.125 4.0625 15.8125 3.4375 15.1875C3.125 14.875 1.875 14.25 3.125 14.25C4.0625 14.25 4.6875 15.5 4.6875 15.5C5.625 16.75 6.875 16.4375 7.5 16.125C7.5 15.5 8.125 14.875 8.125 14.875C5.625 14.5625 3.75 13.625 3.75 10.1875C3.75 8.9375 4.0625 8 4.6875 7.375C4.6875 7.375 4.0625 6.125 4.6875 4.5625C4.6875 4.5625 6.25 4.5625 7.5 5.8125C8.4375 5.1875 11.5625 5.1875 12.5 5.8125C13.75 4.5625 15.3125 4.5625 15.3125 4.5625C15.9375 6.75 15.3125 7.375 15.3125 7.375C15.9375 8 16.25 8.9375 16.25 10.1875C16.25 13.625 14.0625 14.5625 11.875 14.875C12.1875 15.1875 12.5 15.8125 12.5 16.75V19.25C12.5 19.5625 12.5 19.875 13.125 19.875C14.0625 19.875 20 17.0625 20 10.5C20 4.875 15.625 0.5 10 0.5Z" fill="#FF0A7F"/>
</svg>
