<svg width="65" height="24" viewBox="0 0 65 24" fill="none" xmlns="http://www.w3.org/2000/svg">
<g clip-path="url(#clip0)">
<path d="M33.5583 7.94927L36.6507 7.75054C36.7212 8.25322 36.8506 8.62731 37.0622 8.89618C37.4032 9.31703 37.8736 9.52745 38.4967 9.52745C38.9553 9.52745 39.3198 9.42224 39.5668 9.20013C39.8019 9.02477 39.943 8.74421 39.943 8.45195C39.943 8.17139 39.8137 7.90251 39.5903 7.72716C39.3551 7.51674 38.8025 7.30631 37.9324 7.11927C36.5096 6.80363 35.4866 6.38279 34.8869 5.84504C34.2873 5.34236 33.9463 4.60587 33.9698 3.82263C33.9698 3.28488 34.1344 2.74713 34.4401 2.3029C34.7929 1.80022 35.275 1.40276 35.8511 1.18064C36.4743 0.911767 37.3444 0.771484 38.438 0.771484C39.7784 0.771484 40.8014 1.01698 41.5069 1.51966C42.2124 2.01065 42.6357 2.80558 42.765 3.89277L39.7079 4.06812C39.6255 3.60052 39.4609 3.2615 39.1905 3.03939C38.92 2.81727 38.5673 2.71206 38.1087 2.71206C37.7325 2.71206 37.4503 2.79389 37.2621 2.94586C37.0857 3.08615 36.9682 3.29657 36.9799 3.53037C36.9799 3.70573 37.074 3.86939 37.2151 3.9746C37.3679 4.11488 37.7325 4.24348 38.3086 4.36038C39.7314 4.66432 40.7426 4.96827 41.3658 5.28391C41.989 5.59954 42.4358 5.98532 42.7062 6.44124C42.9884 6.90884 43.1295 7.44659 43.1178 7.99603C43.1178 8.65069 42.9296 9.30534 42.5534 9.85478C42.1653 10.4276 41.6245 10.8718 40.9895 11.1407C40.3193 11.433 39.4727 11.5849 38.4615 11.5849C36.6742 11.5849 35.4396 11.2459 34.7458 10.5562C34.0521 9.86647 33.6406 9.00139 33.5583 7.94927ZM0.740774 11.4096V0.958528H6.16136C7.16082 0.958528 7.93687 1.04036 8.46599 1.21571C8.98336 1.37938 9.44193 1.71839 9.74765 2.17431C10.0886 2.67699 10.2533 3.2615 10.2415 3.86939C10.2768 4.89813 9.74765 5.88011 8.84226 6.39448C8.48951 6.59321 8.10148 6.73349 7.7017 6.80363C7.99566 6.88546 8.28962 7.02575 8.5483 7.18941C8.74819 7.35307 8.91281 7.54012 9.06567 7.73885C9.24204 7.93758 9.3949 8.1597 9.52424 8.3935L11.0999 11.4213H7.40774L5.66751 8.20646C5.4441 7.7973 5.25597 7.52843 5.0796 7.39983C4.84443 7.23617 4.56223 7.15434 4.28003 7.15434H3.99783V11.3979H0.740774V11.4096ZM3.99783 5.19038H5.37355C5.66751 5.167 5.94971 5.12024 6.23191 5.0501C6.44356 5.01503 6.63169 4.89813 6.76104 4.72278C7.07851 4.30193 7.03148 3.70573 6.64345 3.34333C6.4318 3.16798 6.02026 3.07446 5.43234 3.07446H3.99783V5.19038ZM0 20.3643L3.09244 20.1655C3.16299 20.6682 3.29233 21.0423 3.50398 21.3112C3.83321 21.732 4.3153 21.9541 4.9385 21.9541C5.39707 21.9541 5.76158 21.8489 6.0085 21.6268C6.24367 21.4398 6.38477 21.1709 6.38477 20.8786C6.38477 20.5981 6.25543 20.3292 6.03202 20.1539C5.79685 19.9434 5.24421 19.733 4.36234 19.546C2.93958 19.2303 1.91661 18.8095 1.31693 18.2717C0.717258 17.769 0.376266 17.0326 0.399783 16.2493C0.399783 15.7116 0.564399 15.1738 0.870116 14.7296C1.22287 14.2269 1.70496 13.8294 2.28111 13.6073C2.90431 13.3385 3.77442 13.1982 4.86795 13.1982C6.20839 13.1982 7.23137 13.4437 7.93687 13.9464C8.64237 14.449 9.05391 15.2323 9.18325 16.3195L6.12609 16.4948C6.04378 16.0272 5.87916 15.6882 5.60872 15.4661C5.35004 15.244 4.98553 15.1388 4.52695 15.1504C4.15069 15.1504 3.86849 15.2323 3.68035 15.3959C3.49222 15.5362 3.3864 15.7466 3.39815 15.9804C3.39815 16.1558 3.49222 16.3195 3.63332 16.4247C3.78618 16.565 4.15069 16.6936 4.72685 16.8105C6.1496 17.1144 7.16082 17.4183 7.78401 17.734C8.4072 18.0496 8.85402 18.4354 9.12446 18.8913C9.40666 19.3589 9.54776 19.8967 9.54776 20.4344C9.54776 21.0891 9.34787 21.732 8.98336 22.2815C8.59533 22.8543 8.05445 23.2985 7.4195 23.5674C6.74928 23.8596 5.90268 24.0116 4.89146 24.0116C3.1042 24.0116 1.86957 23.6726 1.17583 22.9829C0.482091 22.2815 0.0940666 21.4164 0 20.3643H0Z" fill="white"/>
<path d="M15.6386 19.546L18.4841 20.3994C18.3313 21.1125 18.0138 21.7905 17.5787 22.3867C17.179 22.9128 16.6498 23.322 16.0502 23.5908C15.4387 23.8597 14.6627 24 13.722 24C12.5815 24 11.6408 23.8363 10.9235 23.509C10.1945 23.1817 9.57133 22.5972 9.0422 21.7672C8.51308 20.9372 8.25439 19.8734 8.25439 18.5757C8.25439 16.8456 8.71297 15.5129 9.64188 14.5894C10.5708 13.6659 11.876 13.1982 13.5692 13.1982C14.8978 13.1982 15.9326 13.4671 16.6969 13.9932C17.4494 14.5309 18.0138 15.3492 18.3901 16.4481L15.521 17.0794C15.4505 16.8339 15.3447 16.5884 15.2036 16.378C15.0272 16.1325 14.8038 15.9454 14.5333 15.8052C14.2629 15.6649 13.9572 15.6064 13.6515 15.6064C12.9107 15.6064 12.3463 15.8987 11.9583 16.4949C11.6643 16.9274 11.5115 17.6171 11.5115 18.5524C11.5115 19.7097 11.6878 20.5046 12.0406 20.9372C12.3933 21.3697 12.8872 21.5801 13.5339 21.5801C14.1571 21.5801 14.6274 21.4048 14.9449 21.0658C15.2624 20.7034 15.4975 20.2007 15.6386 19.546ZM22.2821 13.3736H25.5274V17.0326H29.0784V13.3736H32.3472V23.8246H29.0784V19.5928H25.5274V23.8246H22.2821V13.3736Z" fill="white"/>
<path d="M31.9004 18.5991C31.9004 16.8923 32.3825 15.5596 33.3349 14.6127C34.2873 13.6658 35.6278 13.1865 37.3327 13.1865C39.0847 13.1865 40.4252 13.6541 41.3776 14.5893C42.33 15.5246 42.8004 16.8339 42.8004 18.5173C42.8004 19.7447 42.5887 20.7384 42.1772 21.5216C41.7774 22.2932 41.1542 22.9245 40.3899 23.3453C39.6021 23.7779 38.6262 24 37.4621 24C36.2745 24 35.2985 23.8129 34.5225 23.4388C33.7229 23.0414 33.0645 22.4218 32.6294 21.6619C32.1473 20.8436 31.9004 19.8266 31.9004 18.5991ZM35.1457 18.6108C35.1457 19.6629 35.3456 20.4228 35.7336 20.8904C36.1216 21.3463 36.6625 21.5801 37.3445 21.5801C38.0382 21.5801 38.5791 21.358 38.9671 20.9021C39.3552 20.4461 39.5433 19.6395 39.5433 18.4705C39.5433 17.4885 39.3434 16.7637 38.9436 16.3195C38.5438 15.8636 38.003 15.6415 37.321 15.6415C36.7213 15.6181 36.1451 15.8753 35.7454 16.3312C35.3456 16.7871 35.1457 17.547 35.1457 18.6108ZM46.128 18.5991C46.128 16.8923 46.6101 15.5596 47.5625 14.6127C48.5149 13.6658 49.8554 13.1865 51.5603 13.1865C53.3123 13.1865 54.6645 13.6541 55.6052 14.5893C56.5458 15.5246 57.0279 16.8339 57.0279 18.5173C57.0279 19.7447 56.8163 20.7384 56.4047 21.5216C56.005 22.2932 55.3818 22.9245 54.6175 23.3453C53.8297 23.7779 52.8537 24 51.6897 24C50.5021 24 49.5261 23.8129 48.7501 23.4388C47.9505 23.0414 47.292 22.4218 46.857 21.6619C46.3749 20.8436 46.128 19.8266 46.128 18.5991ZM49.3733 18.6108C49.3733 19.6629 49.5732 20.4228 49.9612 20.8904C50.3492 21.3463 50.8901 21.5801 51.5721 21.5801C52.2658 21.5801 52.8067 21.358 53.1947 20.9021C53.5827 20.4461 53.7709 19.6395 53.7709 18.4705C53.7709 17.4885 53.571 16.7637 53.1712 16.3195C52.7714 15.8636 52.2305 15.6415 51.5485 15.6415C50.9489 15.6181 50.361 15.8753 49.9729 16.3312C49.5732 16.7871 49.3733 17.547 49.3733 18.6108Z" fill="white"/>
<path d="M56.6871 13.3735H59.9323V21.2527H65.0002V23.8246H56.6753V13.3735H56.6871Z" fill="white"/>
<path d="M53.0943 12.7719C56.3588 10.3204 57.3666 6.16599 55.3451 3.49286C53.3236 0.819723 49.0384 0.640083 45.7738 3.09162C42.5093 5.54315 41.5015 9.69752 43.523 12.3707C45.5445 15.0438 49.8297 15.2234 53.0943 12.7719Z" stroke="white" stroke-width="0.589315" stroke-miterlimit="10"/>
<path d="M53.0943 12.7719C56.3588 10.3204 57.3666 6.16599 55.3451 3.49286C53.3236 0.819723 49.0384 0.640083 45.7738 3.09162C42.5093 5.54315 41.5015 9.69752 43.523 12.3707C45.5445 15.0438 49.8297 15.2234 53.0943 12.7719Z" stroke="white" stroke-width="0.589315" stroke-miterlimit="10"/>
<path d="M46.14 7.16598L47.3159 6.34766L48.7622 8.39345C49.0091 8.72077 49.1972 9.07148 49.3383 9.45726C49.4206 9.74951 49.3971 10.0651 49.2795 10.3457C49.1267 10.6964 48.8797 10.9887 48.5505 11.1991C48.1625 11.468 47.8332 11.6199 47.551 11.6667C47.2806 11.7135 46.9984 11.6667 46.7397 11.5498C46.4575 11.4095 46.2106 11.2108 46.0225 10.9536L47.0337 10.0184C47.116 10.147 47.2218 10.2639 47.3394 10.3574C47.4217 10.4159 47.5158 10.4509 47.6216 10.4509C47.7039 10.4509 47.7862 10.4159 47.845 10.3691C47.9626 10.299 48.0449 10.1587 48.0331 10.0184C47.9979 9.81965 47.9156 9.62092 47.7862 9.46895L46.14 7.16598ZM49.6675 8.46359L50.7376 7.62189C50.8551 7.76218 51.008 7.86739 51.1726 7.92584C51.4078 7.99598 51.6547 7.94922 51.8546 7.79725C51.9957 7.70373 52.1133 7.57513 52.1603 7.41147C52.2309 7.20105 52.1133 6.96724 51.9016 6.8971C51.8664 6.88541 51.8311 6.87372 51.7958 6.87372C51.6547 6.86203 51.4078 6.92048 51.0433 7.07245C50.4436 7.31795 49.9733 7.41147 49.6205 7.3764C49.2795 7.34133 48.962 7.16598 48.7739 6.87372C48.6328 6.67499 48.5623 6.44118 48.5505 6.20738C48.5505 5.9385 48.6211 5.66963 48.7739 5.44752C48.9973 5.13188 49.2678 4.863 49.597 4.65258C50.0908 4.31357 50.5259 4.1499 50.9022 4.1499C51.2784 4.1499 51.6312 4.32526 51.9604 4.68765L50.9022 5.51766C50.6905 5.24878 50.2907 5.19033 50.0203 5.40075L49.985 5.43583C49.8674 5.50597 49.7851 5.61118 49.7381 5.73977C49.7028 5.83329 49.7263 5.9385 49.7851 6.02034C49.8322 6.07879 49.9027 6.12555 49.985 6.12555C50.0791 6.13724 50.2437 6.09048 50.4789 5.98527C51.0668 5.73977 51.5136 5.59949 51.8193 5.55273C52.078 5.50597 52.3484 5.52935 52.5954 5.63456C52.8188 5.72808 53.0069 5.89174 53.1363 6.09048C53.3009 6.32428 53.3949 6.60485 53.4067 6.8971C53.4185 7.20105 53.3361 7.4933 53.1715 7.75049C52.9599 8.06612 52.6894 8.335 52.372 8.54542C51.7253 8.98965 51.1961 9.17669 50.7728 9.10655C50.3143 9.03641 49.938 8.80261 49.6675 8.46359Z" fill="white"/>
</g>
<defs>
<clipPath id="clip0">
<rect width="65" height="24" fill="white"/>
</clipPath>
</defs>
</svg>
