<svg width="122" height="203" viewBox="0 0 122 203" fill="none" xmlns="http://www.w3.org/2000/svg">
<path fill-rule="evenodd" clip-rule="evenodd" d="M3.47396 2.92234C-0.60301 6.98136 -1.74732 17.7462 3.65069 19.0549C9.0487 20.3636 7.87095 23.8093 9.0487 27.4034C11.8773 36.045 18.1331 38.8499 34.7413 38.9222C42.2985 38.9535 49.4532 39.6254 50.6408 40.4146C57.1066 44.7099 57.3148 49.7964 57.3148 203L92.6472 203L92.6472 76.0335L100.628 76.0335C110.408 76.0335 116.202 73.1778 116.202 68.3608C116.202 66.3645 117.586 64.2022 119.278 63.5576C123.983 61.7605 122.175 51.7693 117.011 51.0348C111.208 50.2085 106.849 55.7951 109.948 60.0826C116.532 69.191 114.453 72.0487 101.204 72.0976L93.077 72.1269L92.3332 57.4945C91.1751 34.6659 90.4841 34.2674 49.9028 33.0603C31.8479 32.5231 15.9719 31.3726 14.6214 30.5034C10.8389 28.0676 11.6888 23.948 17.0751 18.588C23.007 12.6851 23.2563 8.93469 18.0565 3.76031C13.3416 -0.931584 7.67656 -1.25779 3.47396 2.92234ZM12.8999 16.2812C16.9945 14.7185 17.0575 6.50084 12.9883 4.94599L12.7129 4.84045L12.3768 4.71114C10.7677 4.09141 9.9897 3.79172 9.31564 3.94508C8.68453 4.08868 8.14465 4.62953 7.09937 5.67681C6.99983 5.77654 6.89562 5.88087 6.78645 5.98988L6.67161 6.10431C1.83892 10.9134 6.59699 18.6896 12.8999 16.2812ZM112.93 59.7564C114.502 61.321 120.128 58.9868 120.128 56.7698C120.128 53.498 114.131 52.5545 112.942 55.6408C112.308 57.2796 112.304 59.1314 112.93 59.7564Z" fill="url(#paint0_linear)"/>
<defs>
<linearGradient id="paint0_linear" x1="61" y1="-5.33279e-06" x2="61" y2="203" gradientUnits="userSpaceOnUse">
<stop stop-color="#0086FF"/>
<stop offset="0.973958" stop-color="#31F1DA"/>
</linearGradient>
</defs>
</svg>
