<svg width="90" height="235" viewBox="0 0 90 235" fill="none" xmlns="http://www.w3.org/2000/svg">
<path fill-rule="evenodd" clip-rule="evenodd" d="M65.3464 42.2284C65.6144 68.8605 66.3567 84.4439 67.3576 84.4201C68.23 84.398 68.9438 82.7622 68.9438 80.7812C68.9438 78.8003 69.6576 77.3719 70.5301 77.6032C71.4025 77.8364 71.8926 80.0212 71.6182 82.4593C71.1423 86.7022 71.2787 86.7719 74.7906 84.0767C79.5366 80.4361 80.2695 75.894 76.3436 74.4509C72.6953 73.1107 71.3136 68.3868 73.014 63.0681C74.5669 58.2047 78.2725 56.5726 83.0169 58.66C88.5274 61.0853 89.2015 67.0558 84.6681 73.2925C82.5632 76.1877 80.8405 80.2488 80.8405 82.3142C80.8405 86.8453 78.7784 88.494 71.3771 89.8857L65.7714 90.9413L65.7714 109.269L65.7714 127.598L73.4297 128.163C77.9367 128.496 82.658 125.709 83.1739 125.404L83.2098 125.383C83.4668 125.234 85.1373 122.706 84.806 122.595C84.4747 122.483 83.7433 121.646 82.9598 120.739C80.7787 118.216 80.6756 117.19 82.3602 114.838C83.4832 113.274 84.9409 111.992 85.5991 111.992C86.2574 111.992 87.7152 113.274 88.8382 114.838C90.5228 117.19 90.4197 118.216 88.2386 120.739C88.2386 120.739 86.9364 121.591 86.6794 122.595C86.4224 123.598 86.2939 124.342 85.3343 126.68C84.3748 129.018 81.7574 129.59 74.7669 129.981L64.9783 130.526L64.9783 235L26.9091 235L26.9091 192.773L22.2252 192.773C18.4325 192.773 17.0397 191.553 14.9126 186.362C11.9352 179.101 12.8696 173.843 16.9715 174.759C20.3137 175.503 21.654 181.679 18.9035 183.647C15.7105 185.931 18.5023 191.272 22.5408 190.607L26.116 190.02L26.5412 146.416L26.9663 102.812L18.902 102.812C10.1271 102.813 4.70205 100.418 4.70205 96.5464C4.70205 95.1915 3.63135 93.0545 2.32272 91.7969C-3.02917 86.6563 1.77076 77.7428 7.59852 81.9966C11.2183 84.6386 11.5212 87.3153 8.58514 90.7137C3.83442 96.2105 6.88003 99.1406 17.3427 99.1406L26.9091 99.1406L26.9091 57.832L26.9091 16.5234L23.3401 16.4959C21.378 16.4794 19.0558 15.8607 18.1818 15.119C15.4551 12.8038 12.224 4.1529 13.117 1.55872C13.7007 -0.137689 14.0084 0.0936394 14.0941 2.29493C14.1623 4.0611 15.3662 5.50782 16.7684 5.50782C18.3832 5.50782 18.9829 4.49805 18.4039 2.75391C17.9027 1.23926 18.1834 6.27841e-06 19.0272 6.20464e-06C21.1337 6.02048e-06 20.9545 2.99442 18.5815 7.42454C16.9477 10.4759 17.0175 11.4397 18.978 12.9048C23.383 16.1966 26.0939 14.0523 26.6078 6.87008L27.1011 5.49879e-06L46.0103 3.8457e-06L64.9197 2.19259e-06L65.3464 42.2284ZM80.2187 71.3023C76.9225 72.0367 74.3719 68.6016 75.5584 65.0252C76.5926 61.9023 79.8857 60.6043 82.3301 62.3521C85.1789 64.39 83.7321 70.5184 80.2187 71.3023ZM5.0986 89.6121C3.57266 89.2706 2.32272 87.7762 2.32272 86.2891C2.32272 84.802 3.57266 83.3075 5.0986 82.966C7.04647 82.5327 7.87448 83.5241 7.87448 86.2891C7.87448 89.054 7.04647 90.0454 5.0986 89.6121ZM84.806 119.336C83.4974 119.336 82.4267 118.51 82.4267 117.5C82.4267 116.49 83.4974 115.664 84.806 115.664C86.1147 115.664 87.1854 116.49 87.1854 117.5C87.1854 118.51 86.1147 119.336 84.806 119.336ZM15.6963 182.597C14.8841 182.017 14.2193 180.351 14.2193 178.896C14.2193 175.866 16.7256 175.354 18.1849 178.086C19.4793 180.509 17.5823 183.946 15.6963 182.597Z" fill="#F0A7A7"/>
</svg>
