<svg width="88" height="44" viewBox="0 0 88 44" fill="none" xmlns="http://www.w3.org/2000/svg">
<path d="M78.496 37.5843L88 44L0 44L9.504 37.5843L0.98289 30.9609L11.7985 28.379L5.78804 19.75L16.9543 20.2019L13.9885 10.3341L24.5132 13.7797L24.8556 3.54979L33.8036 9.68292L37.4238 -7.6837e-05L44 8.27565L50.5763 -7.56871e-05L54.1964 9.68292L63.1444 3.54979L63.4868 13.7797L74.0115 10.3341L71.0457 20.2019L82.212 19.75L76.2015 28.379L87.0171 30.961L78.496 37.5843Z" fill="black"/>
<rect width="7" height="14" rx="3.5" transform="matrix(1 8.74228e-08 8.74228e-08 -1 30 34)" fill="white"/>
<rect width="7" height="14" rx="3.5" transform="matrix(1 8.74228e-08 8.74228e-08 -1 18 34)" fill="white"/>
</svg>
