<svg width="52" height="136" viewBox="0 0 52 136" fill="none" xmlns="http://www.w3.org/2000/svg">
<path fill-rule="evenodd" clip-rule="evenodd" d="M49.8485 2.38579C51.0315 3.72765 52 6.08458 52 7.62519C52 10.4903 49.1842 13.7845 47.0171 13.7845C44.85 13.7845 45.5 16.346 45.5 18.4575C45.5 23.6062 42.8324 25.5643 34.1705 26.7701C30.1768 27.3263 26.4212 28.5708 25.8245 29.5365C25.2278 30.5022 24.7403 78.4105 24.7403 136L-4.46736e-07 136L-9.52924e-06 32.1082L2.92499 28.6282C6.62609 24.2264 13.1105 22.6938 28.2009 22.6538C39.1014 22.6245 40.3325 22.3577 42.2006 19.6219C44.1285 16.7982 44.057 16.4794 40.9734 14.1758C37.3854 11.4934 36.4299 4.4506 39.26 1.54679C41.5909 -0.844825 47.4058 -0.384643 49.8485 2.38579ZM42.2331 10.6024C39.6942 8.44018 39.7617 4.44527 42.3565 3.42353C45.4063 2.22306 46.3164 2.4098 48.0857 4.59733C51.298 8.56823 46.1032 13.8983 42.2331 10.6024Z" fill="url(#paint0_linear)"/>
<defs>
<linearGradient id="paint0_linear" x1="26" y1="2.27299e-06" x2="26" y2="136" gradientUnits="userSpaceOnUse">
<stop stop-color="#003554"/>
<stop offset="1" stop-color="#49377C"/>
</linearGradient>
</defs>
</svg>
