<svg width="69" height="113" viewBox="0 0 69 113" fill="none" xmlns="http://www.w3.org/2000/svg">
<path fill-rule="evenodd" clip-rule="evenodd" d="M3.47033 2.39212C2.27263 3.76953 0.835703 5.6896 0.278904 6.65751C-0.883993 8.67923 1.78399 14.3721 4.68688 16.066C5.76713 16.696 6.65017 18.3955 6.65017 19.8445C6.65017 25.2454 11.5338 28.8793 20.3875 30.0663C34.5568 31.9649 33.4751 25.1136 33.4751 113L69 113L69 34.6409L65.3547 31.0414C60.6031 26.3479 56.5257 25.6591 33.5186 25.6592C16.79 25.6592 14.0437 25.3255 11.9499 23.0404C8.76285 19.5639 8.90202 18.7005 13.1752 15.3801C17.8615 11.7405 18.0588 5.21424 13.5768 2.11579C9.37329 -0.792235 6.16442 -0.704897 3.47033 2.39212ZM6.24999 12.5809C9.55743 14.4079 13.9002 12.0784 13.9002 8.47735C13.9002 6.95819 12.7416 5.10255 11.325 4.35371C5.62649 1.3426 0.615301 9.46673 6.24999 12.5809Z" fill="url(#paint0_linear)"/>
<defs>
<linearGradient id="paint0_linear" x1="34.5" y1="-3.01609e-06" x2="34.5" y2="113" gradientUnits="userSpaceOnUse">
<stop stop-color="#675749"/>
<stop offset="1" stop-color="#564967"/>
</linearGradient>
</defs>
</svg>
