<svg width="77" height="158" viewBox="0 0 77 158" fill="none" xmlns="http://www.w3.org/2000/svg">
<path fill-rule="evenodd" clip-rule="evenodd" d="M15.275 2.42161C12.0174 6.0442 12.4014 11.8439 16.1663 15.9207C17.9066 17.8042 19.652 21.4907 20.046 24.1133L20.7641 28.8827L14.4148 28.505C6.81881 28.0546 4.13098 25.3179 7.55059 21.5158C10.1549 18.6198 10.3207 13.2856 7.86975 11.2391C5.50108 9.26024 1.2861 10.6669 0.309961 13.7625C-0.597612 16.6384 0.616729 21.2272 2.28352 21.2272C2.92306 21.2272 3.44665 22.2311 3.44665 23.457C3.44665 24.6842 4.32052 26.9428 5.38766 28.4762C7.14671 31.0046 8.36969 31.2656 18.4777 31.2656C28.0645 31.2656 29.6267 31.5592 29.6267 33.3624C29.6267 34.5155 28.6679 36.5257 27.4973 37.8282C25.8803 39.6263 25.6884 40.7067 26.6982 42.3191C28.8599 45.7673 32.6821 44.9793 33.1371 40.9903C33.3541 39.0918 32.9339 37.5396 32.2021 37.5396C30.109 37.5396 30.6526 32.8742 32.8455 32.0273C37.3185 30.2994 45.8283 31.2606 48.3267 33.7752C50.7863 36.2509 50.82 37.9574 50.82 158L77 158C77 53.3952 76.7918 40.8296 74.9804 36.2735C73.8696 33.4791 71.7652 30.5027 70.3054 29.6607C68.8443 28.8175 61.7595 27.8463 54.56 27.5012L41.47 26.8738L41.8352 22.1683C42.1157 18.5671 41.7404 17.4628 40.2382 17.4628C37.705 17.4628 36.3586 20.9763 38.1874 22.8171C41.1308 25.7796 39.6972 27.5012 34.3017 27.4824C23.4943 27.4447 18.8816 21.4242 25.1661 15.5618C29.1118 11.8815 29.4347 5.97644 25.8867 2.40529C22.6939 -0.808239 18.1722 -0.80071 15.275 2.42161ZM17.7234 12.3935C21.0745 15.1929 24.0167 13.4488 24.0167 8.66171C24.0167 5.23486 23.4731 4.20969 21.5083 3.92611C16.6725 3.22844 13.9747 9.26275 17.7234 12.3935ZM6.88741 18.3023C8.4981 16.6811 8.56039 15.991 7.23892 14.3886C4.66954 11.2742 2.19998 12.2316 2.19998 16.3436C2.19998 19.5684 4.62346 20.581 6.88741 18.3023ZM30.25 42.5588C31.2785 42.5588 32.12 41.7118 32.12 40.6766C32.12 39.6414 31.2785 38.7944 30.25 38.7944C29.2215 38.7944 28.38 39.6414 28.38 40.6766C28.38 41.7118 29.2215 42.5588 30.25 42.5588Z" fill="url(#paint0_linear)"/>
<defs>
<linearGradient id="paint0_linear" x1="38.5" y1="-3.36578e-06" x2="38.5" y2="158" gradientUnits="userSpaceOnUse">
<stop stop-color="#FB0071"/>
<stop offset="1" stop-color="#4097CB"/>
</linearGradient>
</defs>
</svg>
