<svg width="38" height="84" viewBox="0 0 38 84" fill="none" xmlns="http://www.w3.org/2000/svg">
<path fill-rule="evenodd" clip-rule="evenodd" d="M34.974 0.144613C38.4127 1.19705 39.0814 5.60099 36.1471 7.8663C34.9748 8.77134 34.192 10.16 34.192 11.333C34.192 14.4987 31.5791 15.6801 24.5822 15.6801C17.2254 15.6801 15.7435 16.3418 14.6791 20.1032L14.6791 84L1.15964e-06 84L-4.61175e-06 17.983C1.93009 14.1909 5.22411 13.3795 18.7019 13.3787C30.4976 13.3772 31.0223 13.3104 32.1923 11.6715C33.3302 10.0771 33.2817 9.84834 31.4548 8.18564C29.3386 6.25963 28.8138 2.57112 30.4773 1.30836C31.9522 0.187602 33.6664 -0.255327 34.974 0.144613ZM32.1 6.35712C31.4884 5.85892 31.0935 4.73049 31.2218 3.84924C31.501 1.92861 34.3171 1.31143 35.6427 2.87971C37.5165 5.09589 34.3578 8.19638 32.1 6.35712Z" fill="#FF0A7F"/>
</svg>
