<svg width="52" height="129" viewBox="0 0 52 129" fill="none" xmlns="http://www.w3.org/2000/svg">
<path d="M23.5385 15.1575C23.4167 29.839 23.3597 30.1408 21.7017 24.7796C20.7592 21.7339 19.8015 15.6438 19.5731 11.2449C19.2294 4.65045 18.7398 3.16566 16.7837 2.78253C14.5778 2.35038 14.4712 2.99151 15.2691 11.939C15.7397 17.2305 16.6543 23.4341 17.3 25.7239C18.3567 29.4701 18.2691 29.7151 16.4336 28.1671C13.6365 25.8077 10.9791 18.9733 10.9791 14.1371C10.9791 11.005 10.4945 10.2323 8.75919 10.5935C4.56552 11.4681 7.42346 24.4571 13.3524 31.4708C15.3199 33.798 15.2831 33.8431 12.6065 32.4151C11.0602 31.5895 7.95875 28.5929 5.71604 25.7536C1.09741 19.9086 -1.83663 20.5974 1.3118 26.7881C3.84881 31.7779 10.4501 37.41 13.7608 37.41C15.7638 37.41 16.1913 38.0215 15.6535 40.1138C14.6755 43.918 15.9084 46.4477 19.3968 47.7971L22.3956 48.9555V129H28.7546V49.665L32.5513 47.4681C35.3293 45.8608 36.358 44.3012 36.3821 41.6631C36.4075 38.7761 37.3589 37.6035 41.139 35.7988C47.1061 32.9492 54.0499 23.5077 51.4317 21.801C50.2456 21.0283 49.2536 21.3392 48.3999 22.753C45.8972 26.9017 41.1758 32.25 40.0164 32.25C39.3656 32.25 39.9986 29.9293 41.4206 27.0939C44.928 20.1034 46.2575 10.32 43.7002 10.32C42.4659 10.32 41.2976 12.7259 40.2739 17.375C39.4202 21.2553 37.5732 25.7549 36.1703 27.3725L33.6193 30.315L34.3766 27.09C34.7927 25.3162 35.4916 19.0765 35.9293 13.2225C36.6295 3.86871 36.4722 2.58 34.6354 2.58C33.0574 2.58 32.5436 3.79002 32.5436 7.50264C32.5436 14.0223 30.1043 27.4164 28.6354 28.9605C27.925 29.7074 27.4696 24.2984 27.4696 15.093C27.4696 2.53743 27.15 0 25.5669 0C23.9901 0 23.6425 2.60064 23.5385 15.1575Z" fill="url(#paint0_linear)"/>
<path d="M23.5385 15.1575C23.4167 29.839 23.3597 30.1408 21.7017 24.7796C20.7592 21.7339 19.8015 15.6438 19.5731 11.2449C19.2294 4.65045 18.7398 3.16566 16.7837 2.78253C14.5778 2.35038 14.4712 2.99151 15.2691 11.939C15.7397 17.2305 16.6543 23.4341 17.3 25.7239C18.3567 29.4701 18.2691 29.7151 16.4336 28.1671C13.6365 25.8077 10.9791 18.9733 10.9791 14.1371C10.9791 11.005 10.4945 10.2323 8.75919 10.5935C4.56552 11.4681 7.42346 24.4571 13.3524 31.4708C15.3199 33.798 15.2831 33.8431 12.6065 32.4151C11.0602 31.5895 7.95875 28.5929 5.71604 25.7536C1.09741 19.9086 -1.83663 20.5974 1.3118 26.7881C3.84881 31.7779 10.4501 37.41 13.7608 37.41C15.7638 37.41 16.1913 38.0215 15.6535 40.1138C14.6755 43.918 15.9084 46.4477 19.3968 47.7971L22.3956 48.9555V129H28.7546V49.665L32.5513 47.4681C35.3293 45.8608 36.358 44.3012 36.3821 41.6631C36.4075 38.7761 37.3589 37.6035 41.139 35.7988C47.1061 32.9492 54.0499 23.5077 51.4317 21.801C50.2456 21.0283 49.2536 21.3392 48.3999 22.753C45.8972 26.9017 41.1758 32.25 40.0164 32.25C39.3656 32.25 39.9986 29.9293 41.4206 27.0939C44.928 20.1034 46.2575 10.32 43.7002 10.32C42.4659 10.32 41.2976 12.7259 40.2739 17.375C39.4202 21.2553 37.5732 25.7549 36.1703 27.3725L33.6193 30.315L34.3766 27.09C34.7927 25.3162 35.4916 19.0765 35.9293 13.2225C36.6295 3.86871 36.4722 2.58 34.6354 2.58C33.0574 2.58 32.5436 3.79002 32.5436 7.50264C32.5436 14.0223 30.1043 27.4164 28.6354 28.9605C27.925 29.7074 27.4696 24.2984 27.4696 15.093C27.4696 2.53743 27.15 0 25.5669 0C23.9901 0 23.6425 2.60064 23.5385 15.1575Z" fill="url(#paint1_linear)"/>
<defs>
<linearGradient id="paint0_linear" x1="26" y1="0" x2="26" y2="129" gradientUnits="userSpaceOnUse">
<stop stop-color="#5BFFA6"/>
<stop offset="0.5" stop-color="#A98AFF" stop-opacity="0.71"/>
<stop offset="1" stop-color="#8F9BFF"/>
</linearGradient>
<linearGradient id="paint1_linear" x1="26" y1="0" x2="26" y2="129" gradientUnits="userSpaceOnUse">
<stop stop-color="#71BBFF"/>
<stop offset="0.973958" stop-color="#845BAD"/>
</linearGradient>
</defs>
</svg>
