<svg width="58" height="130" viewBox="0 0 58 130" fill="none" xmlns="http://www.w3.org/2000/svg">
<path d="M27.0667 11.8892V23.7771L22.6986 17.3595C20.2948 13.8289 16.6009 9.31238 14.4884 7.32119C11.0858 4.11495 10.5509 3.95663 9.79041 5.93366C9.20396 7.46149 10.3098 9.62 13.2962 12.7709C18.0702 17.81 21.9111 23.158 21.9111 24.7682C21.9111 25.3333 19.5924 24.6138 16.7594 23.1709C9.77489 19.612 0 18.2631 0 20.8579C0 22.0987 2.35222 23.2919 6.76667 24.292C10.489 25.1363 14.9833 26.9525 16.7556 28.3297L19.9778 30.8345L14.4007 30.8628C9.91922 30.8859 8.04907 31.6647 4.8784 34.8323C2.05703 37.6485 1.32759 39.1673 2.32133 40.1597C3.31506 41.1521 4.86295 40.5793 7.75393 38.1505C12.1078 34.4925 17.3652 33.8296 20.8774 36.4952C22.9203 38.045 22.8984 38.2998 20.5552 40.3026C16.9231 43.4084 17.4129 47.3818 21.7306 49.8556L25.4168 51.9691V130H32.2222C32.2222 65.0875 32.5225 51.4852 33.9557 51.4852C36.2693 51.4852 39.9556 47.302 39.9556 44.6762C39.9556 43.5204 38.7401 41.4443 37.254 40.0619L34.5525 37.5494L37.169 36.1503C41.461 33.8579 45.954 34.544 50.246 38.1505C53.137 40.5793 54.6849 41.1521 55.6787 40.1597C56.6724 39.1673 55.9429 37.6485 53.1215 34.8323C49.9509 31.6647 48.0807 30.8859 43.5993 30.8628L38.0222 30.8345L41.2445 28.3297C43.0167 26.9525 47.511 25.1363 51.2333 24.292C55.6478 23.2919 58 22.0987 58 20.8579C58 18.2772 47.6695 19.6738 40.9699 23.1606C38.2851 24.5584 36.0889 25.3835 36.0889 24.9935C36.0889 23.0525 39.507 18.1048 44.2359 13.1982C48.3269 8.95456 49.1595 7.38941 47.9608 6.19238C46.07 4.30416 40.4428 9.28278 34.7111 17.9181L30.9333 23.6098V11.8043C30.9333 2.1701 30.5776 0 29 0C27.4211 0 27.0667 2.17911 27.0667 11.8892Z" fill="url(#paint0_linear)"/>
<path d="M27.0667 11.8892V23.7771L22.6986 17.3595C20.2948 13.8289 16.6009 9.31238 14.4884 7.32119C11.0858 4.11495 10.5509 3.95663 9.79041 5.93366C9.20396 7.46149 10.3098 9.62 13.2962 12.7709C18.0702 17.81 21.9111 23.158 21.9111 24.7682C21.9111 25.3333 19.5924 24.6138 16.7594 23.1709C9.77489 19.612 0 18.2631 0 20.8579C0 22.0987 2.35222 23.2919 6.76667 24.292C10.489 25.1363 14.9833 26.9525 16.7556 28.3297L19.9778 30.8345L14.4007 30.8628C9.91922 30.8859 8.04907 31.6647 4.8784 34.8323C2.05703 37.6485 1.32759 39.1673 2.32133 40.1597C3.31506 41.1521 4.86295 40.5793 7.75393 38.1505C12.1078 34.4925 17.3652 33.8296 20.8774 36.4952C22.9203 38.045 22.8984 38.2998 20.5552 40.3026C16.9231 43.4084 17.4129 47.3818 21.7306 49.8556L25.4168 51.9691V130H32.2222C32.2222 65.0875 32.5225 51.4852 33.9557 51.4852C36.2693 51.4852 39.9556 47.302 39.9556 44.6762C39.9556 43.5204 38.7401 41.4443 37.254 40.0619L34.5525 37.5494L37.169 36.1503C41.461 33.8579 45.954 34.544 50.246 38.1505C53.137 40.5793 54.6849 41.1521 55.6787 40.1597C56.6724 39.1673 55.9429 37.6485 53.1215 34.8323C49.9509 31.6647 48.0807 30.8859 43.5993 30.8628L38.0222 30.8345L41.2445 28.3297C43.0167 26.9525 47.511 25.1363 51.2333 24.292C55.6478 23.2919 58 22.0987 58 20.8579C58 18.2772 47.6695 19.6738 40.9699 23.1606C38.2851 24.5584 36.0889 25.3835 36.0889 24.9935C36.0889 23.0525 39.507 18.1048 44.2359 13.1982C48.3269 8.95456 49.1595 7.38941 47.9608 6.19238C46.07 4.30416 40.4428 9.28278 34.7111 17.9181L30.9333 23.6098V11.8043C30.9333 2.1701 30.5776 0 29 0C27.4211 0 27.0667 2.17911 27.0667 11.8892Z" fill="url(#paint1_linear)"/>
<defs>
<linearGradient id="paint0_linear" x1="29" y1="0" x2="29" y2="130" gradientUnits="userSpaceOnUse">
<stop stop-color="#5BFFA6"/>
<stop offset="0.5" stop-color="#A98AFF" stop-opacity="0.71"/>
<stop offset="1" stop-color="#8F9BFF"/>
</linearGradient>
<linearGradient id="paint1_linear" x1="29" y1="0" x2="29" y2="130" gradientUnits="userSpaceOnUse">
<stop stop-color="#675749"/>
<stop offset="1" stop-color="#564967"/>
</linearGradient>
</defs>
</svg>
