<svg width="61" height="131" viewBox="0 0 61 131" fill="none" xmlns="http://www.w3.org/2000/svg">
<path d="M28.559 11.7296L28.1884 23.4606L24.1184 17.188C18.3925 8.3673 13.7809 4.23438 11.8328 6.17884C10.658 7.35141 11.2049 8.65884 14.2184 11.8773C18.9098 16.8862 23.6849 23.6917 23.6849 25.3665C23.6849 26.033 20.9338 25.2753 17.5729 23.6815C14.2119 22.0889 9.2902 20.4797 6.63567 20.1059C2.48597 19.5216 1.81043 19.7746 1.81043 21.9142C1.81043 23.4246 2.6957 24.4045 4.06221 24.4097C8.32 24.4225 15.7637 27.0387 18.7566 29.5739C20.7459 31.2589 21.0149 31.8561 19.5557 31.3514C14.0575 29.4455 0.752697 37.9874 4.06603 41.2945C5.14045 42.3669 6.55844 41.8648 9.55138 39.3514C13.8362 35.7527 18.3217 35.0682 22.6066 37.3555L25.2186 38.7516L22.5217 41.2586C21.0381 42.6379 19.8247 44.811 19.8247 46.0863C19.8247 48.6228 23.6398 52.6569 26.0382 52.6569C27.1062 52.6569 27.545 57.1622 27.545 68.1264C27.545 82.8395 27.3906 83.7514 24.3861 86.749C22.3376 88.7949 19.7693 89.902 17.0723 89.902C10.5795 89.902 0 95.4563 0 99.4637C0 103.471 0 131 0 131H5.50591C5.50591 131 4.06603 105.958 5.50591 103.396C6.9458 100.835 8.66227 100.686 8.66227 100.686C10.5126 99.0977 14.6198 97.6053 18.5945 97.08C23.8881 96.3787 28.5431 93.3695 29.6746 91.8862C30.8061 90.403 30.8108 87.4556 30.8108 84.0797C30.8108 80.7037 34.0763 73.5108 33.9787 70.1235C33.8811 66.7363 34.3145 52.6569 35.8174 52.6569C41.313 52.6569 43.6369 43.8824 38.9995 40.6408L36.3012 38.7542L38.9158 37.3568C43.3615 34.9821 48.7992 35.7347 52.6002 39.2512C57.1861 43.492 60.7813 42.6341 57.7523 38.0208C54.9859 33.8057 47.5086 30.3971 43.1981 31.3873L39.769 32.1733L42.9112 29.701C46.33 27.013 53.887 24.402 58.2542 24.402C60.1418 24.402 61 23.5993 61 21.8333C61 20.4206 60.5433 19.2647 59.9835 19.2647C56.9829 19.2647 43.763 23.3912 41.0222 25.1841C34.9579 29.1501 38.3214 22.5551 46.9888 13.4853C50.5904 9.71583 51.585 7.83945 50.7203 6.4434C49.7398 4.85984 48.8584 5.18349 45.4782 8.37116C43.2431 10.4774 39.4524 15.083 37.0526 18.6059L32.692 25.0094V12.5054C32.692 2.38882 32.333 0 30.8108 0C29.3233 0 28.8511 2.46203 28.559 11.7296Z" fill="url(#paint0_linear)"/>
<defs>
<linearGradient id="paint0_linear" x1="30.5" y1="0" x2="30.5" y2="131" gradientUnits="userSpaceOnUse">
<stop stop-color="#5BFFA6"/>
<stop offset="0.5" stop-color="#A98AFF" stop-opacity="0.71"/>
<stop offset="1" stop-color="#8F9BFF"/>
</linearGradient>
</defs>
</svg>
