<svg width="59" height="151" viewBox="0 0 59 151" fill="none" xmlns="http://www.w3.org/2000/svg">
<path d="M30.5356 15.1645C30.4338 29.8567 30.3706 30.1897 28.4813 25.8468C27.4104 23.3805 26.2132 17.1379 25.824 11.9729C25.2827 4.81135 24.6563 2.5812 23.1859 2.5812C21.5672 2.5812 21.379 4.2964 22.0169 13.2286C22.4345 19.0854 23.1395 25.328 23.5854 27.1026L24.3934 30.3291L21.8017 27.3852C20.3764 25.7668 18.5 21.2652 17.6326 17.3831C16.6815 13.1267 15.3683 10.3248 14.327 10.3248C11.3745 10.3248 12.3526 18.5059 16.2228 26.1914C19.2668 32.234 19.4665 33.1826 17.4715 32.114C16.1647 31.4132 13.4725 28.5971 11.4892 25.8558C9.05471 22.4887 7.34069 21.2058 6.21304 21.904C3.4796 23.596 11.6065 34.2202 17.6894 36.9085C20.4937 38.1475 22.4706 39.6756 22.0827 40.3041C20.5632 42.7653 23.0222 47.7315 26.15 48.5175C29.3113 49.3125 29.3525 49.4996 29.3332 63.056C29.3074 82.1104 28.2403 83.765 14.6234 85.8854C11.2971 86.403 8.09202 88.144 5.27997 90.9601C5.27997 90.9601 4.14793 91.9037 1.74662 97.3405C-0.654698 102.777 1.00008 151 1.00008 151H10.2034C10.2034 101.445 7.53146 99.6122 10.0574 96.3974C11.9222 94.0214 14.4108 92.8172 18.7565 92.1836C33.3348 90.0605 35.7937 86.1281 35.804 64.9171L35.813 49.688L39.8159 47.4063C42.9939 45.5943 43.695 44.4676 43.2143 41.947C42.7013 39.2639 43.4295 38.3682 47.9015 36.1819C55.0669 32.6779 62.3097 21.8382 57.3828 21.9905C56.4974 22.0176 54.612 23.8503 53.1944 26.0623C51.7767 28.2744 49.3925 30.8827 47.895 31.8597C45.2221 33.602 45.2273 33.5233 48.1824 27.4639C52.2897 19.0466 53.6248 10.3248 50.8063 10.3248C49.6322 10.3248 48.4427 11.7238 48.0638 13.5513C47.6965 15.3259 47.0792 18.2904 46.6926 20.1385C45.8691 24.0761 42.4281 29.6838 40.8352 29.6838C40.2257 29.6838 40.3185 28.1247 41.0414 26.2185C41.7657 24.3123 42.7065 18.2142 43.1343 12.6672C43.7826 4.25252 43.5932 2.5812 41.9939 2.5812C40.5453 2.5812 39.7295 5.41664 38.6508 14.1875C36.3942 32.5347 34.5926 32.9645 34.5462 15.1645C34.514 2.56313 34.1815 0 32.5744 0C30.9712 0 30.6232 2.59152 30.5356 15.1645Z" fill="url(#paint0_linear)"/>
<path d="M30.5356 15.1645C30.4338 29.8567 30.3706 30.1897 28.4813 25.8468C27.4104 23.3805 26.2132 17.1379 25.824 11.9729C25.2827 4.81135 24.6563 2.5812 23.1859 2.5812C21.5672 2.5812 21.379 4.2964 22.0169 13.2286C22.4345 19.0854 23.1395 25.328 23.5854 27.1026L24.3934 30.3291L21.8017 27.3852C20.3764 25.7668 18.5 21.2652 17.6326 17.3831C16.6815 13.1267 15.3683 10.3248 14.327 10.3248C11.3745 10.3248 12.3526 18.5059 16.2228 26.1914C19.2668 32.234 19.4665 33.1826 17.4715 32.114C16.1647 31.4132 13.4725 28.5971 11.4892 25.8558C9.05471 22.4887 7.34069 21.2058 6.21304 21.904C3.4796 23.596 11.6065 34.2202 17.6894 36.9085C20.4937 38.1475 22.4706 39.6756 22.0827 40.3041C20.5632 42.7653 23.0222 47.7315 26.15 48.5175C29.3113 49.3125 29.3525 49.4996 29.3332 63.056C29.3074 82.1104 28.2403 83.765 14.6234 85.8854C11.2971 86.403 8.09202 88.144 5.27997 90.9601C5.27997 90.9601 4.14793 91.9037 1.74662 97.3405C-0.654698 102.777 1.00008 151 1.00008 151H10.2034C10.2034 101.445 7.53146 99.6122 10.0574 96.3974C11.9222 94.0214 14.4108 92.8172 18.7565 92.1836C33.3348 90.0605 35.7937 86.1281 35.804 64.9171L35.813 49.688L39.8159 47.4063C42.9939 45.5943 43.695 44.4676 43.2143 41.947C42.7013 39.2639 43.4295 38.3682 47.9015 36.1819C55.0669 32.6779 62.3097 21.8382 57.3828 21.9905C56.4974 22.0176 54.612 23.8503 53.1944 26.0623C51.7767 28.2744 49.3925 30.8827 47.895 31.8597C45.2221 33.602 45.2273 33.5233 48.1824 27.4639C52.2897 19.0466 53.6248 10.3248 50.8063 10.3248C49.6322 10.3248 48.4427 11.7238 48.0638 13.5513C47.6965 15.3259 47.0792 18.2904 46.6926 20.1385C45.8691 24.0761 42.4281 29.6838 40.8352 29.6838C40.2257 29.6838 40.3185 28.1247 41.0414 26.2185C41.7657 24.3123 42.7065 18.2142 43.1343 12.6672C43.7826 4.25252 43.5932 2.5812 41.9939 2.5812C40.5453 2.5812 39.7295 5.41664 38.6508 14.1875C36.3942 32.5347 34.5926 32.9645 34.5462 15.1645C34.514 2.56313 34.1815 0 32.5744 0C30.9712 0 30.6232 2.59152 30.5356 15.1645Z" fill="url(#paint1_linear)"/>
<defs>
<linearGradient id="paint0_linear" x1="29.7222" y1="0" x2="29.7222" y2="151" gradientUnits="userSpaceOnUse">
<stop stop-color="#5BFFA6"/>
<stop offset="0.5" stop-color="#A98AFF" stop-opacity="0.71"/>
<stop offset="1" stop-color="#8F9BFF"/>
</linearGradient>
<linearGradient id="paint1_linear" x1="29.7222" y1="0" x2="29.7222" y2="151" gradientUnits="userSpaceOnUse">
<stop stop-color="#FB0071"/>
<stop offset="1" stop-color="#4097CB"/>
</linearGradient>
</defs>
</svg>
