<svg width="58" height="129" viewBox="0 0 58 129" fill="none" xmlns="http://www.w3.org/2000/svg">
<path d="M29.8483 15.1575C29.7476 29.8429 29.6851 30.1757 27.8166 25.8348C26.7574 23.3696 25.5733 17.1299 25.1884 11.9673C24.653 4.80912 24.0336 2.58 22.5793 2.58C20.9784 2.58 20.7923 4.29441 21.4232 13.2225C21.8362 19.0765 22.5334 25.3162 22.9744 27.09L23.7736 30.315L21.2104 27.3725C19.8007 25.7549 17.9449 21.2553 17.0871 17.375C16.1464 13.1206 14.8476 10.32 13.8178 10.32C10.8977 10.32 11.8651 18.4973 15.6927 26.1793C18.7033 32.219 18.9008 33.1672 16.9278 32.0991C15.6353 31.3986 12.9728 28.5838 11.0112 25.8439C8.60347 22.4782 6.90828 21.196 5.79302 21.8939C3.08962 23.5851 11.1271 34.2043 17.1432 36.8914C19.9167 38.1298 21.8719 39.6572 21.4882 40.2854C19.9575 42.7906 22.4225 47.7106 25.6141 48.5208L28.8847 49.3515L28.4628 64.6238C27.9708 82.4207 27.3042 83.6397 17.1649 85.2613C9.60275 86.4713 5.46288 88.8436 2.24838 93.8088C0.254921 96.8893 0 100.869 0 129H7.01023C7.01023 101.498 7.17084 99.4719 9.5951 96.3527C11.4394 93.9778 13.9007 92.7742 18.1986 92.1408C32.6167 90.0188 35.0486 86.0882 35.0588 64.887L35.0677 49.665L39.0266 47.3843C42.1697 45.5731 42.8631 44.4469 42.3877 41.9276C41.8804 39.2457 42.6005 38.3504 47.0234 36.1651C54.1101 32.6628 61.2732 21.8281 56.4005 21.9803C55.5249 22.0074 53.6601 23.8392 52.2581 26.0503C50.856 28.2613 48.498 30.8684 47.017 31.8449C44.3735 33.5864 44.3785 33.5077 47.3012 27.4512C51.3633 19.0378 52.6838 10.32 49.8963 10.32C48.7351 10.32 47.5587 11.7184 47.1839 13.545C46.8207 15.3187 46.2101 18.2819 45.8278 20.1292C45.0133 24.065 41.6101 29.67 40.0347 29.67C39.4319 29.67 39.5236 28.1117 40.2387 26.2063C40.955 24.301 41.8855 18.2058 42.3086 12.6613C42.9497 4.25055 42.7624 2.58 41.1806 2.58C39.748 2.58 38.9412 5.41413 37.8743 14.181C35.6425 32.5196 33.8607 32.9492 33.8148 15.1575C33.7829 2.56194 33.4541 0 31.8647 0C30.2791 0 29.935 2.59032 29.8483 15.1575Z" fill="url(#paint0_linear)"/>
<path d="M29.8483 15.1575C29.7476 29.8429 29.6851 30.1757 27.8166 25.8348C26.7574 23.3696 25.5733 17.1299 25.1884 11.9673C24.653 4.80912 24.0336 2.58 22.5793 2.58C20.9784 2.58 20.7923 4.29441 21.4232 13.2225C21.8362 19.0765 22.5334 25.3162 22.9744 27.09L23.7736 30.315L21.2104 27.3725C19.8007 25.7549 17.9449 21.2553 17.0871 17.375C16.1464 13.1206 14.8476 10.32 13.8178 10.32C10.8977 10.32 11.8651 18.4973 15.6927 26.1793C18.7033 32.219 18.9008 33.1672 16.9278 32.0991C15.6353 31.3986 12.9728 28.5838 11.0112 25.8439C8.60347 22.4782 6.90828 21.196 5.79302 21.8939C3.08962 23.5851 11.1271 34.2043 17.1432 36.8914C19.9167 38.1298 21.8719 39.6572 21.4882 40.2854C19.9575 42.7906 22.4225 47.7106 25.6141 48.5208L28.8847 49.3515L28.4628 64.6238C27.9708 82.4207 27.3042 83.6397 17.1649 85.2613C9.60275 86.4713 5.46288 88.8436 2.24838 93.8088C0.254921 96.8893 0 100.869 0 129H7.01023C7.01023 101.498 7.17084 99.4719 9.5951 96.3527C11.4394 93.9778 13.9007 92.7742 18.1986 92.1408C32.6167 90.0188 35.0486 86.0882 35.0588 64.887L35.0677 49.665L39.0266 47.3843C42.1697 45.5731 42.8631 44.4469 42.3877 41.9276C41.8804 39.2457 42.6005 38.3504 47.0234 36.1651C54.1101 32.6628 61.2732 21.8281 56.4005 21.9803C55.5249 22.0074 53.6601 23.8392 52.2581 26.0503C50.856 28.2613 48.498 30.8684 47.017 31.8449C44.3735 33.5864 44.3785 33.5077 47.3012 27.4512C51.3633 19.0378 52.6838 10.32 49.8963 10.32C48.7351 10.32 47.5587 11.7184 47.1839 13.545C46.8207 15.3187 46.2101 18.2819 45.8278 20.1292C45.0133 24.065 41.6101 29.67 40.0347 29.67C39.4319 29.67 39.5236 28.1117 40.2387 26.2063C40.955 24.301 41.8855 18.2058 42.3086 12.6613C42.9497 4.25055 42.7624 2.58 41.1806 2.58C39.748 2.58 38.9412 5.41413 37.8743 14.181C35.6425 32.5196 33.8607 32.9492 33.8148 15.1575C33.7829 2.56194 33.4541 0 31.8647 0C30.2791 0 29.935 2.59032 29.8483 15.1575Z" fill="url(#paint1_linear)"/>
<defs>
<linearGradient id="paint0_linear" x1="29" y1="0" x2="29" y2="129" gradientUnits="userSpaceOnUse">
<stop stop-color="#5BFFA6"/>
<stop offset="0.5" stop-color="#A98AFF" stop-opacity="0.71"/>
<stop offset="1" stop-color="#8F9BFF"/>
</linearGradient>
<linearGradient id="paint1_linear" x1="29" y1="0" x2="29" y2="129" gradientUnits="userSpaceOnUse">
<stop stop-color="#774D4D"/>
<stop offset="1" stop-color="#759357"/>
</linearGradient>
</defs>
</svg>
