<svg width="62" height="153" viewBox="0 0 62 153" fill="none" xmlns="http://www.w3.org/2000/svg">
<path d="M29.559 11.7424L29.1884 23.4861L25.1185 17.2067C19.3925 8.37643 14.7809 4.239 12.8328 6.18557C11.658 7.35943 12.2049 8.66828 15.2184 11.8903C19.9098 16.9046 24.6848 23.7176 24.6848 25.3941C24.6848 26.0614 21.9338 25.3029 18.5729 23.7073C15.2119 22.113 10.2902 20.502 7.63566 20.1279C3.48596 19.5429 2.81042 19.7961 2.81042 21.9381C2.81042 23.4501 3.69569 24.4311 5.0622 24.4363C9.31999 24.4491 16.7637 27.0681 19.7567 29.6061C21.746 31.293 22.0149 31.8909 20.5558 31.3856C15.0576 29.4776 1.75274 38.0289 5.06607 41.3396C6.14049 42.4131 7.55843 41.9104 10.5514 39.3943C14.8362 35.7917 19.3218 35.1064 23.6066 37.3963L26.2186 38.7939L23.5217 41.3036C22.0381 42.6844 20.8246 44.8599 20.8246 46.1366C20.8246 48.6759 24.6398 52.7143 27.0383 52.7143C28.1063 52.7143 28.545 57.2246 28.545 68.2007C28.545 82.9299 28.3906 83.8427 25.3861 86.8436C23.3376 88.8917 20.7694 90 18.0724 90C11.5796 90 2.44375 95.7143 1.00004 99.5721C-0.443659 103.43 1.00004 152.776 1.00004 152.776L9.42293 153C9.42293 153 7.63566 117.908 7.63566 111.971C7.63566 106.034 9.42293 101.002 9.42293 101.002C11.5152 99.2031 15.4179 97.7387 19.5946 97.1858C24.8882 96.4838 27.3124 95.346 30.6746 91.9864C30.6746 91.9864 32.5255 88.2065 33.6919 82.9107C34.8583 77.6148 32.9067 69.37 33.6919 63.8495C34.4772 58.3291 31.7766 49.8922 35.7281 49.8922C39.6796 49.8922 44.1981 46.1366 39.9995 40.6851L37.3012 38.7964L39.9159 37.3976C44.3615 35.0203 49.7993 35.7737 53.6003 39.294C58.1862 43.5394 61.7813 42.6806 58.7524 38.0623C55.9859 33.8426 48.5087 30.4303 44.1981 31.4216L40.769 32.2084L43.9112 29.7334C47.33 27.0424 54.8871 24.4286 59.2542 24.4286C61.1419 24.4286 62.0001 23.625 62.0001 21.8571C62.0001 20.4429 61.5433 19.2857 60.9836 19.2857C57.9829 19.2857 44.763 23.4167 42.0223 25.2116C35.9579 29.1819 39.3215 22.5797 47.9889 13.5C51.5905 9.72643 52.585 7.848 51.7204 6.45043C50.7399 4.86514 49.8585 5.18914 46.4783 8.38029C44.2432 10.4889 40.4524 15.0994 38.0527 18.6261L33.6919 25.0367V12.519C33.6919 2.39143 33.333 0 31.8108 0C30.3234 0 29.8511 2.46471 29.559 11.7424Z" fill="url(#paint0_linear)"/>
<defs>
<linearGradient id="paint0_linear" x1="31.1792" y1="0" x2="31.1792" y2="153" gradientUnits="userSpaceOnUse">
<stop stop-color="#7655D6"/>
<stop offset="1" stop-color="#003554"/>
</linearGradient>
</defs>
</svg>
