<svg width="30" height="30" viewBox="0 0 30 30" fill="none" xmlns="http://www.w3.org/2000/svg">
<g clip-path="url(#clip0)">
<path d="M27.6664 8.32007C27.694 6.94443 27.3917 5.55354 27.1464 4.18397C27.0619 3.71252 26.8908 3.25695 26.7222 2.80993C26.5952 2.47342 26.2202 2.25912 25.8748 2.33278C25.6513 2.3804 25.4503 2.42678 25.2555 2.4909C23.2153 3.16207 21.3263 4.14366 19.5116 5.28409C19.2678 5.43713 18.9132 5.49237 18.6188 5.47079C17.9147 5.41933 17.2181 5.2441 16.5143 5.21074C14.7723 5.12821 13.0338 5.18122 11.3076 5.48314C11.0676 5.52506 10.7517 5.48376 10.5524 5.3549C8.57351 4.07446 6.51467 2.97853 4.19868 2.36323C3.851 2.27084 3.49322 2.31976 3.40529 2.45785C3.3516 2.54231 3.30304 2.62993 3.27638 2.72387C3.02618 3.60296 2.72966 4.47763 2.58425 5.37545C2.41093 6.44694 2.24426 7.55085 2.32648 8.62105C2.37825 9.29377 2.19249 9.70717 1.82489 10.1792C0.591756 11.7635 0.0364779 13.5845 0.00249933 15.5812C-0.0267067 17.2889 0.199316 18.9531 0.71937 20.5856C1.51592 23.087 3.05409 24.9642 5.37013 26.1856C7.27439 27.1897 9.34942 27.5768 11.4727 27.6514C13.3865 27.7184 15.3041 27.6616 17.2201 27.6723C19.1405 27.6831 21.0346 27.512 22.8718 26.9132C24.7107 26.3141 26.3019 25.3474 27.5366 23.8274C29.3199 21.6317 29.8751 19.0452 29.9891 16.3072C30.0764 14.2135 29.6497 12.2438 28.4236 10.531C27.9264 9.83608 27.6477 9.2392 27.6664 8.32007ZM23.969 24.3632C23.1455 25.0754 22.1384 25.4125 21.1076 25.6589C19.0849 26.1421 17.0255 26.2625 14.9593 26.1723C12.917 26.2608 10.8981 26.1335 8.91102 25.6658C7.44522 25.3211 6.10703 24.7414 5.1743 23.4832C3.69009 21.4808 3.31072 17.6701 5.76325 15.5904C6.38866 15.0602 7.08618 14.7237 7.91038 14.6713C8.81997 14.6132 9.72987 14.4999 10.6388 14.5106C12.9316 14.5379 15.2235 14.652 17.516 14.6691C18.5631 14.6767 19.6174 14.4325 20.6568 14.4954C21.6013 14.5526 22.5944 14.7265 23.4516 15.1065C24.8806 15.7402 25.6498 17.0251 25.8822 18.5299C26.2282 20.7675 25.7717 22.8041 23.969 24.3632Z" fill="black"/>
<path d="M20.2329 22.9216C21.4398 22.9216 22.4182 21.614 22.4182 20.0011C22.4182 18.3881 21.4398 17.0806 20.2329 17.0806C19.0261 17.0806 18.0477 18.3881 18.0477 20.0011C18.0477 21.614 19.0261 22.9216 20.2329 22.9216Z" fill="black"/>
<path d="M9.80594 22.9216C11.013 22.9216 11.9915 21.614 11.9915 20.0011C11.9915 18.3881 11.013 17.0806 9.80594 17.0806C8.59891 17.0806 7.62042 18.3881 7.62042 20.0011C7.62042 21.614 8.59891 22.9216 9.80594 22.9216Z" fill="black"/>
</g>
<defs>
<clipPath id="clip0">
<rect width="30" height="30" fill="white"/>
</clipPath>
</defs>
</svg>
