<svg width="104" height="68" viewBox="0 0 104 68" fill="none" xmlns="http://www.w3.org/2000/svg">
<rect x="36" y="36" width="32" height="32" rx="4" fill="#C4C4C4"/>
<rect x="36" y="36" width="32" height="32" rx="4" fill="url(#paint0_linear)"/>
<path d="M53.3038 55.5C52.916 56.1667 51.9463 56.1667 51.5585 55.5L48.0677 49.5C47.6798 48.8333 48.1646 48 48.9404 48L55.9219 48C56.6977 48 57.1825 48.8333 56.7946 49.5L53.3038 55.5Z" fill="white"/>
<rect x="72" y="36" width="32" height="32" rx="4" fill="#C4C4C4"/>
<rect x="72" y="36" width="32" height="32" rx="4" fill="url(#paint1_linear)"/>
<path d="M91.5 51.6273C92.1667 52.0152 92.1667 52.9848 91.5 53.3727L85.5 56.8635C84.8333 57.2514 84 56.7665 84 55.9908L84 49.0092C84 48.2335 84.8333 47.7486 85.5 48.1365L91.5 51.6273Z" fill="white"/>
<rect y="36" width="32" height="32" rx="4" fill="#C4C4C4"/>
<rect y="36" width="32" height="32" rx="4" fill="url(#paint2_linear)"/>
<path d="M12.5 53.3727C11.8333 52.9848 11.8333 52.0152 12.5 51.6273L18.5 48.1365C19.1667 47.7486 20 48.2335 20 49.0092L20 55.9908C20 56.7665 19.1667 57.2514 18.5 56.8635L12.5 53.3727Z" fill="white"/>
<rect x="36" width="32" height="32" rx="4" fill="#C4C4C4"/>
<rect x="36" width="32" height="32" rx="4" fill="url(#paint3_linear)"/>
<path d="M51.6273 12.5C52.0152 11.8333 52.9848 11.8333 53.3727 12.5L56.8635 18.5C57.2514 19.1667 56.7665 20 55.9908 20H49.0092C48.2335 20 47.7486 19.1667 48.1365 18.5L51.6273 12.5Z" fill="white"/>
<defs>
<linearGradient id="paint0_linear" x1="59.4099" y1="37.2553" x2="56.1236" y2="68.2109" gradientUnits="userSpaceOnUse">
<stop stop-color="#2F7231"/>
<stop offset="1" stop-color="#51B754"/>
</linearGradient>
<linearGradient id="paint1_linear" x1="95.4099" y1="37.2553" x2="92.1236" y2="68.2109" gradientUnits="userSpaceOnUse">
<stop stop-color="#2F7231"/>
<stop offset="1" stop-color="#51B754"/>
</linearGradient>
<linearGradient id="paint2_linear" x1="23.4099" y1="37.2553" x2="20.1236" y2="68.2109" gradientUnits="userSpaceOnUse">
<stop stop-color="#2F7231"/>
<stop offset="1" stop-color="#51B754"/>
</linearGradient>
<linearGradient id="paint3_linear" x1="59.4099" y1="1.25533" x2="56.1236" y2="32.2109" gradientUnits="userSpaceOnUse">
<stop stop-color="#2F7231"/>
<stop offset="1" stop-color="#51B754"/>
</linearGradient>
</defs>
</svg>
