<svg width="91" height="120" viewBox="0 0 91 120" fill="none" xmlns="http://www.w3.org/2000/svg">
<path d="M46.4829 75.4839H29.1133C26.7915 111.214 7.09765 108.285 9.9999 120H45.7042L46.4829 75.4839Z" fill="url(#paint0_linear)"/>
<path d="M70.0834 75.4839H52.2894C52.2894 75.4839 53.2188 118.836 56.0355 120H78.2132C79.7566 120 80.8574 118.504 80.3862 117.034C76.2052 103.992 72.1806 93.9046 70.0834 75.4839Z" fill="url(#paint1_linear)"/>
<path d="M10.2625 89.0323C10.2625 89.0323 18.3363 89.0323 47.7478 89.0323C77.1593 89.0323 91 82.5892 91 82.5892C80.6195 49.7879 97.9204 0.000286005 47.7478 0C2.1888 2.92868 10.2625 39.8301 10.2625 89.0323Z" fill="url(#paint2_linear)"/>
<rect width="7.74194" height="19.3548" rx="3.87097" transform="matrix(-1 0 0 1 42.6129 29.0323)" fill="black"/>
<rect width="7.74194" height="19.3548" rx="3.87097" transform="matrix(-1 0 0 1 25.1936 27.0968)" fill="black"/>
<defs>
<linearGradient id="paint0_linear" x1="23.0031" y1="75.5446" x2="31.4787" y2="116.489" gradientUnits="userSpaceOnUse">
<stop stop-color="#DE2E6B"/>
<stop offset="1" stop-color="#F95488"/>
</linearGradient>
<linearGradient id="paint1_linear" x1="62.785" y1="75.5446" x2="73.2605" y2="115.496" gradientUnits="userSpaceOnUse">
<stop stop-color="#DE2E6B"/>
<stop offset="1" stop-color="#F95488"/>
</linearGradient>
<linearGradient id="paint2_linear" x1="39.0973" y1="0.121369" x2="54.5492" y2="82.6245" gradientUnits="userSpaceOnUse">
<stop stop-color="#F95488"/>
<stop offset="1" stop-color="#DE2E6B"/>
</linearGradient>
</defs>
</svg>
