<svg width="104" height="68" viewBox="0 0 104 68" fill="none" xmlns="http://www.w3.org/2000/svg">
<rect x="36" y="36" width="32" height="32" rx="4" fill="url(#paint0_linear)"/>
<path d="M51.9586 56.12C51.3106 56.12 50.6826 56.028 50.0746 55.844C49.4746 55.66 48.9986 55.416 48.6466 55.112L49.1866 53.9C49.5306 54.172 49.9506 54.396 50.4466 54.572C50.9506 54.74 51.4546 54.824 51.9586 54.824C52.5826 54.824 53.0466 54.724 53.3506 54.524C53.6626 54.324 53.8186 54.06 53.8186 53.732C53.8186 53.492 53.7306 53.296 53.5546 53.144C53.3866 52.984 53.1706 52.86 52.9066 52.772C52.6426 52.684 52.2826 52.584 51.8266 52.472C51.1866 52.32 50.6666 52.168 50.2666 52.016C49.8746 51.864 49.5346 51.628 49.2466 51.308C48.9666 50.98 48.8266 50.54 48.8266 49.988C48.8266 49.524 48.9506 49.104 49.1986 48.728C49.4546 48.344 49.8346 48.04 50.3386 47.816C50.8506 47.592 51.4746 47.48 52.2106 47.48C52.7226 47.48 53.2266 47.544 53.7226 47.672C54.2186 47.8 54.6466 47.984 55.0066 48.224L54.5146 49.436C54.1466 49.22 53.7626 49.056 53.3626 48.944C52.9626 48.832 52.5746 48.776 52.1986 48.776C51.5826 48.776 51.1226 48.88 50.8186 49.088C50.5226 49.296 50.3746 49.572 50.3746 49.916C50.3746 50.156 50.4586 50.352 50.6266 50.504C50.8026 50.656 51.0226 50.776 51.2866 50.864C51.5506 50.952 51.9106 51.052 52.3666 51.164C52.9906 51.308 53.5026 51.46 53.9026 51.62C54.3026 51.772 54.6426 52.008 54.9226 52.328C55.2106 52.648 55.3546 53.08 55.3546 53.624C55.3546 54.088 55.2266 54.508 54.9706 54.884C54.7226 55.26 54.3426 55.56 53.8306 55.784C53.3186 56.008 52.6946 56.12 51.9586 56.12Z" fill="white"/>
<rect x="72" y="36" width="32" height="32" rx="4" fill="url(#paint1_linear)"/>
<path d="M84.171 47.6H87.843C88.739 47.6 89.535 47.776 90.231 48.128C90.927 48.472 91.467 48.964 91.851 49.604C92.235 50.236 92.427 50.968 92.427 51.8C92.427 52.632 92.235 53.368 91.851 54.008C91.467 54.64 90.927 55.132 90.231 55.484C89.535 55.828 88.739 56 87.843 56H84.171V47.6ZM87.771 54.68C88.387 54.68 88.927 54.564 89.391 54.332C89.863 54.092 90.223 53.756 90.471 53.324C90.727 52.884 90.855 52.376 90.855 51.8C90.855 51.224 90.727 50.72 90.471 50.288C90.223 49.848 89.863 49.512 89.391 49.28C88.927 49.04 88.387 48.92 87.771 48.92H85.731V54.68H87.771Z" fill="white"/>
<rect y="36" width="32" height="32" rx="4" fill="url(#paint2_linear)"/>
<path d="M18.5819 54.056H14.3819L13.5539 56H11.9459L15.7259 47.6H17.2619L21.0539 56H19.4219L18.5819 54.056ZM18.0659 52.832L16.4819 49.16L14.9099 52.832H18.0659Z" fill="white"/>
<rect x="36" width="32" height="32" rx="4" fill="url(#paint3_linear)"/>
<path d="M58.5427 11.6L55.7587 20H54.1027L52.0267 13.784L49.9147 20H48.2467L45.4627 11.6H47.0827L49.1707 17.984L51.3427 11.6H52.7827L54.9067 18.02L57.0547 11.6H58.5427Z" fill="white"/>
<defs>
<linearGradient id="paint0_linear" x1="56.4315" y1="36.0436" x2="51.332" y2="65.865" gradientUnits="userSpaceOnUse">
<stop stop-color="#F95488"/>
<stop offset="1" stop-color="#DE2E6B"/>
</linearGradient>
<linearGradient id="paint1_linear" x1="92.4315" y1="36.0436" x2="87.332" y2="65.865" gradientUnits="userSpaceOnUse">
<stop stop-color="#F95488"/>
<stop offset="1" stop-color="#DE2E6B"/>
</linearGradient>
<linearGradient id="paint2_linear" x1="20.4315" y1="36.0436" x2="15.332" y2="65.865" gradientUnits="userSpaceOnUse">
<stop stop-color="#F95488"/>
<stop offset="1" stop-color="#DE2E6B"/>
</linearGradient>
<linearGradient id="paint3_linear" x1="56.4315" y1="0.0436225" x2="51.332" y2="29.865" gradientUnits="userSpaceOnUse">
<stop stop-color="#F95488"/>
<stop offset="1" stop-color="#DE2E6B"/>
</linearGradient>
</defs>
</svg>
