<svg width="88" height="88" viewBox="0 0 88 88" fill="none" xmlns="http://www.w3.org/2000/svg">
<path d="M0 44.0001L9.504 37.5844L0.982894 30.961L11.7985 28.379L5.78803 19.7501L16.9543 20.202L13.9885 10.3342L24.5132 13.7798L24.8556 3.54987L33.8036 9.683L37.4237 1.14983e-06L44 8.27573L50.5762 0L54.1964 9.683L63.1444 3.54987L63.4868 13.7797L74.0115 10.3342L71.0457 20.202L82.212 19.7501L76.2015 28.379L87.0171 30.961L78.496 37.5844L88 44.0001L78.496 50.4158L87.0171 57.0391L76.2015 59.6211L82.212 68.25L71.0457 67.7982L74.0115 77.666L63.4868 74.2204L63.1444 84.4503L54.1964 78.3172L50.5762 88.0002L44 79.7244L37.4238 88.0002L33.8036 78.3172L24.8556 84.4503L24.5132 74.2204L13.9885 77.666L16.9543 67.7982L5.78803 68.25L11.7985 59.6211L0.982889 57.0391L9.504 50.4158L0 44.0001Z" fill="black"/>
</svg>
