<svg width="88" height="88" viewBox="0 0 88 88" fill="none" xmlns="http://www.w3.org/2000/svg">
<path d="M78.496 37.5843L88 44L0 44L9.504 37.5843L0.98289 30.9609L11.7985 28.379L5.78804 19.75L16.9543 20.2019L13.9885 10.3341L24.5132 13.7797L24.8556 3.54979L33.8036 9.68292L37.4238 -7.6837e-05L44 8.27565L50.5763 -7.56871e-05L54.1964 9.68292L63.1444 3.54979L63.4868 13.7797L74.0115 10.3341L71.0457 20.2019L82.212 19.75L76.2015 28.379L87.0171 30.961L78.496 37.5843Z" fill="black"/>
<path d="M9.50401 50.4157L1.52588e-05 44L88 44L78.496 50.4157L87.0171 57.0391L76.2015 59.621L82.212 68.25L71.0457 67.7981L74.0115 77.6659L63.4868 74.2203L63.1444 84.4502L54.1964 78.3171L50.5763 88.0001L44 79.7243L37.4238 88.0001L33.8036 78.3171L24.8556 84.4502L24.5132 74.2203L13.9885 77.6659L16.9543 67.7981L5.78804 68.2499L11.7985 59.621L0.982907 57.039L9.50401 50.4157Z" fill="black"/>
<rect width="7" height="14" rx="3.5" transform="matrix(1 8.74228e-08 8.74228e-08 -1 47 53)" fill="white"/>
<rect width="7" height="14" rx="3.5" transform="matrix(1 8.74228e-08 8.74228e-08 -1 35 53)" fill="white"/>
</svg>
