<svg width="45" height="29" viewBox="0 0 45 29" fill="none" xmlns="http://www.w3.org/2000/svg">
<path fill-rule="evenodd" clip-rule="evenodd" d="M9 1.5C9 0.671573 8.32843 0 7.5 0H2C0.895431 0 0 0.89543 0 2V7.5C0 8.32843 0.671573 9 1.5 9C2.32843 9 3 8.32843 3 7.5V4C3 3.44772 3.44772 3 4 3H7.5C8.32843 3 9 2.32843 9 1.5ZM37.5 0C36.6716 0 36 0.671573 36 1.5C36 2.32843 36.6716 3 37.5 3H41C41.5523 3 42 3.44772 42 4V7.5C42 8.32843 42.6716 9 43.5 9C44.3284 9 45 8.32843 45 7.5V2C45 0.895431 44.1046 0 43 0H37.5ZM9 27.5C9 26.6716 8.32843 26 7.5 26H4C3.44772 26 3 25.5523 3 25V21.5C3 20.6716 2.32843 20 1.5 20C0.671573 20 0 20.6716 0 21.5V27C0 28.1046 0.895431 29 2 29H7.5C8.32843 29 9 28.3284 9 27.5ZM36 27.5C36 28.3284 36.6716 29 37.5 29H43C44.1046 29 45 28.1046 45 27V21.5C45 20.6716 44.3284 20 43.5 20C42.6716 20 42 20.6716 42 21.5V25C42 25.5523 41.5523 26 41 26H37.5C36.6716 26 36 26.6716 36 27.5Z" fill="#122747"/>
</svg>
