<svg width="29" height="29" viewBox="0 0 29 29" fill="none" xmlns="http://www.w3.org/2000/svg">
<path opacity="0.4" d="M8.49247 0.00143111L20.5041 0L28.9986 8.49247L29 20.5041L20.5075 28.9986L8.49593 29L0.00143093 20.5075L0 8.49593L8.49247 0.00143111Z" fill="#122747"/>
<path opacity="0.7" d="M20.4926 0L20.6302 8.36005L28.9904 8.48435L23.1763 14.4931L29 20.4926L20.64 20.6302L20.5157 28.9904L14.5069 23.1763L8.50742 29L8.36981 20.64L0.00955629 20.5157L5.8237 14.5069L0 8.50742L8.36005 8.36981L8.48435 0.00955629L14.4931 5.8237L20.4926 0Z" fill="#122747"/>
<path opacity="0.9" d="M8.36168 8.35183L14.4994 5.80949L20.6372 8.35183L23.1795 14.4896L20.6372 20.6273L14.4994 23.1697L8.36168 20.6273L5.81934 14.4896L8.36168 8.35183Z" fill="#122747"/>
</svg>
