<svg width="9" height="44" viewBox="0 0 9 44" fill="none" xmlns="http://www.w3.org/2000/svg">
<path d="M1.36272 0.456249C0.665346 1.11892 0.736697 4.15152 1.48165 5.52089C2.05256 6.56982 2.01959 6.86606 1.06431 9.27763C-0.546199 13.3437 -0.377596 15.9805 1.90357 22.4038C4.27071 29.0678 4.90591 33.7014 4.2845 39.7642C4.06538 42.2972 4.06538 42.6828 4.133 44H4.77361C4.77361 31.6003 4.67805 29.9899 3.75156 26.7491C3.25243 25.0041 2.6381 22.6842 2.38645 21.5936C2.13438 20.503 1.64107 19.4021 1.29051 19.1471C1.31722 18.4706 2.54672 16.1475 3.07549 15.4063C3.9882 14.1273 4.1639 14.0587 6.51852 14.0587H9L8.86645 12.869C8.79299 12.2146 8.55845 11.6198 8.34477 11.5472C8.13151 11.4742 7.95666 11.1621 7.95666 10.8532C7.95666 10.1683 6.64288 10.112 5.95343 10.7672C5.67799 11.0289 5.45263 11.4643 5.45263 11.7344C5.45263 12.0049 4.36966 13.8002 3.78537 14.0563C3.20108 14.3125 1.83292 17.1404 1.06431 18.6836C1.06431 18.6836 0.445102 15.5785 0.447744 14.7961C0.450385 14.0138 0.795555 10.6157 1.69659 8.90643C2.58009 7.23051 2.9799 6.87479 4.30536 6.58688C6.15208 6.18554 8.37399 4.35496 8.37399 3.23464C8.37399 2.43912 7.34651 1.78437 6.69713 2.16588C6.50474 2.2789 6.22095 1.99297 6.06653 1.53096C5.84117 0.855995 5.55446 0.734247 4.61378 0.913101C3.80664 1.06658 3.36886 0.955932 3.20818 0.558169C2.92523 -0.142576 2.04423 -0.191355 1.36272 0.456249Z" fill="url(#paint0_linear)"/>
<defs>
<linearGradient id="paint0_linear" x1="4.5" y1="0" x2="4.5" y2="44" gradientUnits="userSpaceOnUse">
<stop stop-color="#FB0071"/>
<stop offset="1" stop-color="#4097CB"/>
</linearGradient>
</defs>
</svg>
