<svg width="10" height="43" viewBox="0 0 10 43" fill="none" xmlns="http://www.w3.org/2000/svg">
<path d="M0.501487 0.453257C-0.509697 1.43221 0.0463181 3.5204 1.82684 5.43162C2.56042 6.21921 2.77294 7.00953 2.94328 9.58933C3.12486 12.3333 3.36349 13.1419 4.66554 15.4234C9.55836 23.9959 10.1256 26.228 9.38119 33.9822C9.07185 37.2041 9.07185 39.7781 9.38119 43H9.78293C9.47359 39.7781 9.47359 37.2041 9.78293 33.9822C10.3594 27.9766 9.81064 24.1289 7.85979 20.5028C7.08282 19.0587 5.78762 16.6551 4.98132 15.1616C3.79618 12.9661 3.47919 11.9012 3.32693 9.60645L3.13894 6.76761L4.76356 5.67743C6.75781 4.33949 7.8831 2.2972 7.25317 1.15801C6.75782 0.261512 6.66139 0.237398 5.65744 0.757403C5.11026 1.04094 4.862 0.990764 4.69206 0.562936C4.41446 -0.137536 2.97059 -0.203266 2.71428 0.472703C2.56724 0.861638 2.42382 0.861638 1.99798 0.472703C1.33591 -0.131702 1.10892 -0.134813 0.501487 0.453257Z" fill="url(#paint0_linear)"/>
<defs>
<linearGradient id="paint0_linear" x1="5" y1="0" x2="5" y2="43" gradientUnits="userSpaceOnUse">
<stop stop-color="#FB0071"/>
<stop offset="1" stop-color="#4097CB"/>
</linearGradient>
</defs>
</svg>
