<svg width="9" height="37" viewBox="0 0 9 37" fill="none" xmlns="http://www.w3.org/2000/svg">
<path fill-rule="evenodd" clip-rule="evenodd" d="M0.056432 1.02579C-0.116094 1.73955 0.0990923 2.47112 0.810906 3.58744C1.57109 4.78008 1.80683 5.64767 1.80683 7.25038C1.80683 10.2822 2.69117 13.3769 5.04484 18.5797C7.36347 23.7054 8.13888 26.7732 8.65036 32.8479L9 37L8.82708 32.5984C8.60657 26.9863 7.69595 23.3265 5.07416 17.512C2.75972 12.38 2.21091 10.3917 2.19682 7.09379C2.19034 5.49661 2.36555 4.71562 2.81801 4.32572C3.16458 4.02756 3.6913 3.17974 3.98837 2.44185C4.46139 1.26661 4.45641 1.02618 3.94835 0.498669C3.4879 0.0205839 3.25368 -0.00432941 2.81189 0.376082C2.4337 0.701923 2.17627 0.722882 2.00869 0.44133C1.5273 -0.367342 0.304748 -0.00156045 0.056432 1.02579Z" fill="url(#paint0_linear)"/>
<defs>
<linearGradient id="paint0_linear" x1="4.5" y1="0" x2="4.5" y2="37" gradientUnits="userSpaceOnUse">
<stop stop-color="#0086FF"/>
<stop offset="0.973958" stop-color="#31F1DA"/>
</linearGradient>
</defs>
</svg>
