<svg width="6" height="33" viewBox="0 0 6 33" fill="none" xmlns="http://www.w3.org/2000/svg">
<path d="M3.39415 0.596891C3.24019 1.06618 3.07578 1.10736 2.72361 0.765279C2.17847 0.236059 1.52988 0.587921 1.52988 1.41315C1.52988 1.77235 1.32087 1.89385 0.972191 1.73728C0.665657 1.59947 0.288419 1.72587 0.133759 2.0182C-0.355649 2.94536 0.539217 4.41763 2.14434 5.32725C3.26318 5.96126 3.84559 6.61809 4.22911 7.67776C5.83074 12.1052 6.05473 15.8423 5.15045 23.0419C4.84253 25.4914 4.59103 29.9727 4.59103 33H4.91777C4.91777 30.1969 5.194 25.6101 5.53153 22.807C6.31807 16.2729 6.12614 12.1362 4.86517 8.44712C3.98807 5.88094 3.96508 5.64935 4.4733 4.49877C4.77043 3.82685 5.01321 2.75414 5.01321 2.11524C5.01321 0.35919 3.83445 -0.746545 3.39415 0.596891Z" fill="url(#paint0_linear)"/>
<defs>
<linearGradient id="paint0_linear" x1="3" y1="0" x2="3" y2="33" gradientUnits="userSpaceOnUse">
<stop stop-color="#0086FF"/>
<stop offset="0.973958" stop-color="#31F1DA"/>
</linearGradient>
</defs>
</svg>
