<svg width="10" height="38" viewBox="0 0 10 38" fill="none" xmlns="http://www.w3.org/2000/svg">
<path d="M2.05612 0.350625C1.93658 0.547792 1.49178 0.616682 1.06755 0.503846C-0.0770278 0.198593 -0.354546 1.4299 0.495837 3.04049C0.890949 3.78917 1.52982 4.57388 1.91523 4.78411C2.44191 5.07194 2.61579 5.64048 2.61579 7.07845C2.61579 10.3883 3.34004 13.0924 5.48715 17.7979C9.03035 25.563 9.57797 28.2687 9.57797 38H10C9.97943 28.4358 9.3979 25.5183 5.87528 17.7979C3.79298 13.2342 3.00391 10.3796 3.00391 7.40944C3.00391 6.15913 3.28763 5.50824 4.36235 4.29476C5.26552 3.27527 5.72079 2.37099 5.72079 1.59777C5.72079 0.232247 5.14133 -0.27136 4.34528 0.402095C3.94745 0.739021 3.78017 0.749316 3.78017 0.436145C3.78017 -0.0931967 2.3674 -0.163275 2.05612 0.350625Z" fill="white"/>
</svg>
