<svg width="12" height="31" viewBox="0 0 12 31" fill="none" xmlns="http://www.w3.org/2000/svg">
<path d="M2.50681 0.603896C2.38108 0.936039 2.02965 1.20779 1.72582 1.20779C1.19076 1.20779 1.0103 1.67521 1.14356 2.71753C1.17926 2.99452 0.932566 3.22078 0.595823 3.22078C-0.340633 3.22078 -0.1328 4.33275 0.936132 5.04374C1.53902 5.44432 2.58136 5.6412 3.77166 5.57879C5.52558 5.4866 5.74375 5.58805 6.97134 7.0676C10.9591 11.8746 11.4858 14.6678 11.4858 31H11.9999C12.0033 27.6205 11.8707 19.8042 11.3141 15.5753C10.637 11.9841 9.23056 9.01053 7.09786 6.66218C5.9611 5.4101 5.5363 4.59323 5.5363 3.65921C5.5363 1.87771 4.50703 0 3.53051 0C3.09302 0 2.63215 0.271753 2.50681 0.603896Z" fill="#86F0BF"/>
</svg>
